<mxfile host="app.diagrams.net" agent="Mozilla/5.0 (Windows NT 10.0; Win64; x64) AppleWebKit/537.36 (KHTML, like Gecko) Chrome/135.0.0.0 Safari/537.36 Edg/135.0.0.0" version="26.2.9">
  <diagram name="第 1 页" id="HkdZBle143PXtt0_hzSr">
    <mxGraphModel dx="1754" dy="593" grid="1" gridSize="10" guides="1" tooltips="1" connect="1" arrows="1" fold="1" page="1" pageScale="1" pageWidth="827" pageHeight="1169" math="0" shadow="0">
      <root>
        <mxCell id="0" />
        <mxCell id="1" parent="0" />
        <mxCell id="3z0_Sp1MEmYVmoYPcg8N-13" value="" style="rounded=0;whiteSpace=wrap;html=1;fillColor=#f5f5f5;strokeColor=#CCCCCC;fontColor=#333333;" vertex="1" parent="1">
          <mxGeometry x="-110" y="80" width="200" height="320" as="geometry" />
        </mxCell>
        <mxCell id="3z0_Sp1MEmYVmoYPcg8N-12" value="" style="rounded=0;whiteSpace=wrap;html=1;fillColor=#d5e8d4;strokeColor=#CCCCCC;" vertex="1" parent="1">
          <mxGeometry x="-310" y="80" width="200" height="320" as="geometry" />
        </mxCell>
        <mxCell id="3z0_Sp1MEmYVmoYPcg8N-4" value="A" style="text;html=1;align=center;verticalAlign=middle;whiteSpace=wrap;rounded=0;" vertex="1" parent="1">
          <mxGeometry x="-240" y="50" width="60" height="30" as="geometry" />
        </mxCell>
        <mxCell id="3z0_Sp1MEmYVmoYPcg8N-5" value="B" style="text;html=1;align=center;verticalAlign=middle;whiteSpace=wrap;rounded=0;" vertex="1" parent="1">
          <mxGeometry x="-40" y="50" width="60" height="30" as="geometry" />
        </mxCell>
        <mxCell id="3z0_Sp1MEmYVmoYPcg8N-18" value="UDS_BL" style="rounded=0;whiteSpace=wrap;html=1;strokeColor=#CCCCCC;fillColor=#dae8fc;" vertex="1" parent="1">
          <mxGeometry x="-305" y="345" width="190" height="50" as="geometry" />
        </mxCell>
        <mxCell id="3z0_Sp1MEmYVmoYPcg8N-19" value="APPa" style="rounded=0;whiteSpace=wrap;html=1;strokeColor=#CCCCCC;fillColor=#f8cecc;" vertex="1" parent="1">
          <mxGeometry x="-305" y="230" width="190" height="110" as="geometry" />
        </mxCell>
        <mxCell id="3z0_Sp1MEmYVmoYPcg8N-22" value="" style="endArrow=none;html=1;rounded=0;entryX=1;entryY=0;entryDx=0;entryDy=0;exitX=0;exitY=1;exitDx=0;exitDy=0;strokeColor=#CCCCCC;" edge="1" parent="1" target="3z0_Sp1MEmYVmoYPcg8N-12">
          <mxGeometry width="50" height="50" relative="1" as="geometry">
            <mxPoint x="-110" y="400" as="sourcePoint" />
            <mxPoint x="-60" y="240" as="targetPoint" />
          </mxGeometry>
        </mxCell>
        <mxCell id="3z0_Sp1MEmYVmoYPcg8N-24" value="" style="curved=1;endArrow=classic;html=1;rounded=0;strokeColor=#333333;" edge="1" parent="1">
          <mxGeometry width="50" height="50" relative="1" as="geometry">
            <mxPoint x="-310" y="370" as="sourcePoint" />
            <mxPoint x="-310" y="320" as="targetPoint" />
            <Array as="points">
              <mxPoint x="-310" y="370" />
              <mxPoint x="-350" y="360" />
              <mxPoint x="-350" y="320" />
            </Array>
          </mxGeometry>
        </mxCell>
        <mxCell id="3z0_Sp1MEmYVmoYPcg8N-28" value="Update via DoCAN" style="edgeLabel;html=1;align=center;verticalAlign=middle;resizable=0;points=[];" vertex="1" connectable="0" parent="3z0_Sp1MEmYVmoYPcg8N-24">
          <mxGeometry x="0.0756" y="-2" relative="1" as="geometry">
            <mxPoint as="offset" />
          </mxGeometry>
        </mxCell>
        <mxCell id="3z0_Sp1MEmYVmoYPcg8N-31" value="" style="curved=1;endArrow=classic;html=1;rounded=0;startArrow=classic;startFill=1;" edge="1" parent="1">
          <mxGeometry width="50" height="50" relative="1" as="geometry">
            <mxPoint x="-170" y="60" as="sourcePoint" />
            <mxPoint x="-50" y="60" as="targetPoint" />
            <Array as="points">
              <mxPoint x="-110" y="10" />
            </Array>
          </mxGeometry>
        </mxCell>
        <mxCell id="3z0_Sp1MEmYVmoYPcg8N-32" value="Swap Active Bank by configuration on startup" style="edgeLabel;html=1;align=center;verticalAlign=middle;resizable=0;points=[];" vertex="1" connectable="0" parent="3z0_Sp1MEmYVmoYPcg8N-31">
          <mxGeometry x="0.2818" y="-11" relative="1" as="geometry">
            <mxPoint x="-10" y="-12" as="offset" />
          </mxGeometry>
        </mxCell>
        <mxCell id="3z0_Sp1MEmYVmoYPcg8N-33" value="" style="curved=1;endArrow=classic;html=1;rounded=0;strokeColor=#333333;" edge="1" parent="1">
          <mxGeometry width="50" height="50" relative="1" as="geometry">
            <mxPoint x="90" y="370" as="sourcePoint" />
            <mxPoint x="90" y="320" as="targetPoint" />
            <Array as="points">
              <mxPoint x="90" y="370" />
              <mxPoint x="130" y="360" />
              <mxPoint x="130" y="320" />
            </Array>
          </mxGeometry>
        </mxCell>
        <mxCell id="3z0_Sp1MEmYVmoYPcg8N-34" value="Update via DoCAN" style="edgeLabel;html=1;align=center;verticalAlign=middle;resizable=0;points=[];" vertex="1" connectable="0" parent="3z0_Sp1MEmYVmoYPcg8N-33">
          <mxGeometry x="0.0756" y="-2" relative="1" as="geometry">
            <mxPoint as="offset" />
          </mxGeometry>
        </mxCell>
        <mxCell id="3z0_Sp1MEmYVmoYPcg8N-36" value="" style="shape=image;verticalLabelPosition=bottom;labelBackgroundColor=default;verticalAlign=top;aspect=fixed;imageAspect=0;image=data:image/png,iVBORw0KGgoAAAANSUhEUgAAA6kAAAIqCAYAAADGjAxxAAAAAXNSR0IArs4c6QAAAARnQU1BAACxjwv8YQUAAAAJcEhZcwAAEnQAABJ0Ad5mH3gAAOnaSURBVHhe7N0JeFTl2f/xM0lANiHuqFjBalVUEkAUqzWi1q1Yl7pbrVuroi11edVaN7Sty+tSWhe07lTr0te9Lq0WY/WvgEACAloXsO5LFZRNSDL/833m3OHk5MxkZpJMJsnvc11znTn7MjNnnvs8W8ITEelEKioq/pJIJI4IRkU6VDKZPL62tvbOYFSkTel+J52Rf1/8uX9fvD4YFcmLglQR6VQqKyun+IOF/p/gXakpIh3DDx6u87+Hj/qJsUuCSSJtSvc76Wx0XxQRkW6JRFtFRYX+/KTD6bso7U3fMels9J2VtlISDEVEREREREQ6nIJUERERERERKRoKUkVERERERKRoKEgVERERERGRoqEgVURERERERIqGglQREREREREpGgpSRUREREREpGgoSBUREREREZGioSBVREREREREioaCVBERERERESkaiWDYLY0aNWpgXV1dZUNDw0DGE4nEwGQy2cvNFGlH/ndtif9d+zwYXVhWVvbajBkzbFwyqKysnOJfu+ra2tpLgkkiHULfRWlv+o5JZ6PvrLSVbhWkVlRUVPbu0/+YZIn3g7pvVmxaX7eqV6KkJNlnwNr1iaSX6Fe+bmlZj57B0iLtZ8WyJauWL/sq4X/vkksWfd6DaSWlZV/737/Xv1m+9DF/9An/Bl/DdGlKf4BSLPRdlPam75h0NvrOSlvp8kHqsGHDdunTd8CxDcm6g1euWL7ORt/eJrnp1iMT62w02CtfbyNv7YGbeImS0mBpkcJLNtR7X3z8nvflJ+/7w/94C+ZMXfHxu2/0Ki1b4/36ulUPNDTUPTx79uwXg8W7Pf0BSrHQd1Ham75j0tnoOyttpUsGqcOHD9+8Z+8+F9WtWnVwQ11dn0FbViS2GL6LN2SbHb1+a60bLCVSvJZ8+bm3YO5U741Xn1/14VuvlSZKSxcn65N/9byGq2bNmvVWsFi3pD9AKRb6Lkp703dMOht9Z6WtdKmGkyoqKspH7fTdSf7bN9bdeLMf73nU+L4/u/K+xME/v9zbbpcfKECVToPvKt/ZQ375vz1+duX9Jd8/+oy1Bg7Z6if+jf+NysoR1/BdDxYVEREREelSukSQWlVV1Wv4yJHnlPXo+WHvPv1/uv/Jl5T4ifvEVjvs4fXq2z9YSqRz4jvMd/mws67p+cNTJpSsudY6p5eWlr3nB6q/9L/7ZcFiIiIiIiJdQqcPUocPH37E0uUr3u7Ro+fl3zv4p72Pu+S2kiHb7RjMFela+G4ff+mdPXc95OR+PXv1vurrr5e+7QerBwazRUREREQ6vU4bpA4dOrTf9jvs+LjnJe7dZqe9NzrhN5NLKqp+qEaQpMvjO853/cTf/rnHtrvsOyhRUvJ/w4ePuEu5qiIiIiLSFXTKhpPo37TBS/yjR89eWx90+m9L1//WFsEcke7n0/+86T30x1+tXLVyxazSROLA6dOnfxzM6pLUKIN0BB4CLVq0aFAwav6SSCRe8b+PE4Nxr6GhoW7OnDnvB6MiraL7nRQz3RelPXW6nNRhw4Ztm/QSs9feYJOhx1xwswJU6fb4Dfz4/Ek9y9fdqKK+Pjl15MiRWwWzRKRt/cNPfC0IvUb7034ZnlZaWnpWalERka6turq6zr/vPRy+B/qvuPviZak1RLLXqYJUP0AdW9ajx6tDthu97qFnXl3Sp/9awRyR7o3WgI84Z2KvTbaq3LChITlz+PDh+wSzRKQNkBjzB79NjcVLJpMrevTocWUwKiLS5fn3vQnB21j+fALZjPdOkTidJkitqKg4vaS09NFRex+5xn4nnp/osUbvYI6IgN/EAadO6FE55qA1/D+Fv/mB6inBLBFpA+Xl5X/2f1tp+yn2E2KTunpxexGRsNra2kf8QU1qrDn/vvjn7t6/u+SnUwSp5AolSkom7n3s2SWjf/DjYKqIRNGo0q4/+mnJrj86ucRPTN9QWVm5ZzBLRFopU26q/3tTLqqIdEv+/S82N9WfrlxUyVvRB6l+gLq5n/D+6w77HFlCX5Ei0rLhux/kDdt1f6+kpPTBioqKwcFkEWmldLmpykUVke4qXW6qclGlNYo6SKWbmZLSsic33mK7XqP3OzqYKiLZ2O3QU0o2GLxVn9Kysif4LQWTRaQV4nJTlYsqIt1dNDdVuajSWkUdpK7Rq8/kPmuutekPTvp1aVft//TN2VODd13bksVfeu+9NTcYKy5P3nODe3324bvBlPZRqP0YfjNjf3pBz959B2y+xhprTAomi0grRXNTlYsqIt1dNDdVuajSWkUbpFZUVFxQUpIYu/8pF/dco3fXzAS66aKTvd+dekAw1nURiJ93+GhvztTngynF5cEbL3OvRZ+3bxqzUPsJowXsA067bI3Ssh6HVVZWnh1MFpFWCOemKhdVRCTFclOViyptoSiDVD9ArUwkSibsefQvy9Yb9O1gatcz7blHg3dd25tzXvWWfr04GJNC4ze0x1Hje/hvr+S3lZoqIq1huanKRRURSbHcVOWiSltIBMOiMmLE9v/adOjIHX946gQS1l3W8TsPdMM7Xura6RuKuJKDeOi4C739jj4tmFo87HM4/6ZHvS2G7ejet4dC7SedR2+8aMW781/916yZM/cKJnVKlZWVU/zgoNr/M7wkmNRl+eeaDN6KSJ5qamqKMq2Tja58v9P9TaTzKeT9tOhu3BUVFbslEokpR/3qBpcD1JGoQ/n2azO8ZUu/9vr0XdPbZocqb72NNg3mrkZxVnILR40Z6+aznhVtHbTZVt6wnZq2SmzLE7iB4A3RAI56nO/Mm+m9/87rbjxuW4ZAcJ0NNvZ23PNAb+qzj3j//eSDjMvHseMC29pmVJXXb8BabtzMfvk5dzxcj90OPDaYutrzj9ztrpftm+OaP+NF77WpU7xtdxzjbT1yF2+L7bZvFqS117WOCh//9mP2d+fXUvCY7bGF5bOf9vbZ+297915+GsVwxvgJnuIse52F7hKkkoAbf8PTwZiI5GPiafsoSC1Cur+JdD6Fvp8W3Y17xMiRr225/Zit9jr27A5rKYng8OYJ41xgFTX22PHej07+VTCWYjmFZ1x9j/ePB29ttt76Gw/2Tv/dbd4mm2/jxm35qHCOKoHm5KvPbVZMNrotQwBEEEjwNOXhO4OpnjumlgI3grDrzz/R+/SDhcGUlL5rDvCOOftKF/gaGv2ZcMJe7rhOmTCpyTwCs+vOPtqtd/Htf3fHYoFZWDhHtb2vtYk7R47z3Osf8i76Ser6RIPHXI8N+eynkJ6566qV/371hWkzZ776vWBSp6MgVUSypSC1OOn+JtL5FPp+WlRN5vo3rUP8wak/OOmC0l5910xN7ACXn3ag9+/aV7zBW1V4R/x8grfX4T/1Nhs6wntrzjRv7vRqr75ulTd0+9Vp/DfnTPfmTX/Be2fuTO/T9xd4B550jnfgCWd52+ywm/efN19zActnH73nfXdvTs/zytfdwBu1+/7ev/52nxsnaPne2CO9dTYY5MYJ9q4//wRv1cpvXDB0yCnnu9y4hvp6/7imurqso3b/oR/8lLvl8ejtV3tLv/rSzScIZP8DN93C22W/w4Ml4hF0/vbksd6izz/xdtjjAO+w0y7ydj/oJ96AdTZw5/rq80/45z7c22CTzdzybp+JEne+82f8y9t1/x97PXv1dgEdx7z060XeUeMvc7mw2GbU97yynr28ha/XeGMOOs6fN8H79jYjGo+9va81OLYJJ3y/yTnutNePvBXLl3p/v/8Wd8wIfwbI9djy3U8hrbfxkNJZzz8yaP3115/5ySef/DuY3KkMHDjwOH/wrn/8nTY3OBv+eV4y+gc/DsZEJB9Tn/yz9/HHHzfpGqMz6ar3O93fRDqfQt9Pi6bhpKqqqrKS0rKrt/veWG/AehsFUwuP4qoLX691gclZ197ncgrJ9aJo6xX3v+JyxZ64e6LLMYsiQCLHjFxC1mHds39/v5tHbhxBDMhhDOek8T48fsuEcW5ITiW5dcwjN/TUS292ASi5mH+d9Du3TBjTLZeSdbKp/8l2WI8Aku2zH9ZlvwTPsOMxbJfrw3rP3Jfq2YQh509ubrgYMNtad8NN3HuGjFtR2UJca3BsHCuBo52jXU+C2zj5HFs++yk0flvDvveDZFmPHlcEk0REREREikrRBKmLFi36cTKZHLTjvkd16DFVP36PGx500jnN6mMyTjCHac895oZhBGjRYqYEZBRBxUfvtpxxRS4qgQ7BEYFR1K5jj3JDclPDgZihvme2WN9aGD74p+e6YRhBmQWjHFfYCb+61g0J1CiazJDA7dizs499CnWt7RzHHvsLNwzb96hTg3dN5XNs+eynI+y479GlyYbklhUVFc2/YCIiIiIiHaxogtTS0h4/2WanvRL069iRyD1D7779Uo30RF69+/V38xe+MdsNw2gUKM76g4YE71pmjSQN2Xp47P4JvjIFvQSW2bL1CUR5H7c/25cdlyFAJNcWky4+xQ0POeXXjbmk2SjEtaY4M7muiAa14Hg5/6hcjy3f/XQEfmNbj94zWVJS0rzlKxEREekWyGSgrQ/SNdmw5UnzFBOOiZd0LUURpA4dOrRfQ0Pd9zav3LlDjydcdPN3px4Q+4pr8KgtvRsEPTR+FLd/XhYMtdYH77zhhgRkcfvhZbmDcShqa0EsAVhca7/pFOpaL/o81RiVHWecfgPWDt6l5HNs+eynI21esXMPL5HYp6qqqlcwSURERLqRF5+836VnrGeHltjyluYpFhxTW6QZpbgURZC6xhprjC0t65Ec9J2OzWlasWxJ8C7VAm2mV0sNEuVr2ZKv3JDirHH7Db/K123ecm4u6FIFBFZx2w+/4ooRE8xZwEygGw7uWlIM1zqdYj62tvKtrUcw6Ll48eL4LGkRERERkQ5SLMV9x35rqxFJP1ANRjtGuKgsdT/JKUz3iqsv2hasGOvgLYfF7jf8yqVobRwLPPusOSB2++FXXDHi2y8/0w0JqGHj2SjUtbZAPpfc53yOLZ/9dCR+a5t8Z/gq/+0BqSkiIiIiIsWhw4NUWvX1SkrHfrtip46NUANWXJMuRuKQW0jLr7nkGuZinQ02dsNMxWzZPw0ZxTWclAsLrMgFTVe/gP1QByE6n7L/rEcx37Ou/YsbMp5LnYBCXOtwY0pxdS64hnH9oOZ6bPnupyN9Z+T3evnB6sHBqIiIiLQR0kOkn2B1OaONUIL0lc3nlU2ax9Igtk42aULWseXbok4p+7Pj5lha2ibLc5x2DNmm78LrsL+WzjMsfM62Hsdp24pj5xROy9k6Ni283bjPVNpGhwepX3755ehkfd2AIdtm3+BPe6o64Bg3fOiWK5r9EBgnt/Cu/z3HmzO1fboso39RWsklR44fcBQ/HvYf7RYmHwRWlgsa16UNP0L2Q8NI4foHTLey/9bK71HjL3VDpmdz00GhrrXt57E7f++GYdaFTlQ+x5bPfjrSpltvT1+vGw0bNmzbYJKIiIi0AdJD1OG8++rzXDqK8evOPrpJUPN/N1/unXPojo3zeV30kz28a848slnaA6SvmMcypEFsHbZ73uGjYwMvtmPr2PLsM12Qlg3aNLnsp/s2HjfHwjYJ2uIwnePjOO0YWKelcz33sKbrsL905xnF+leefrBbb/mSrxp7aiA9yzQ+mzhx9XRtHabxmYWvJcc34cS9s077SvY6PEhNJBI/WG/Qt1d0dKu+huKd5AoSJPID5IfAkxOG15x5hMstJMfMuoJpCwSj9nSGH9ExZ1/p3vMD5ubGPF78MPiBgpZ0o12j5OOwcRe4oJicW24U3DzZF8fEj9v6/QwXgX3gxt+44dhjxze2ZMt865bF5kdN/+djbtv2tK1Q19r2Q04mNxI7x5suOtl1nRMnn2PLZz8dqd9a63prDfzW0pKSkrHBJBEREWkjC+bNdA1hHjruQtf3PEP6TwdpOuu+7yf/c5WbT//4lo4grRFGIHf9+Se6eaTLzrj6HrcOQzIcSK+RRozmaN48YZxbh+2yfdYh/cayn76/IFgqN6RPl371ZeP2OC8QtEUzWBhnOuw8bR3OnWN76E+pdK+xAJM0WPhcSWfaeWYKCu1asSzr0Pd/W6h+dLL7zDgmjofj4rqSJmR/ccG25K/Dg9SSsh47DPrOsKJpYZTA76xr73M/eH4c/BBozZUhX0Kmn/6729okQLSgjh87+zDUc+SHz4833Mqv3cz4YefSkm4mBJnnXv+QC7i4UfBEiH25G1Dw4z7mrNV9n3KzYTmOY+8jUgGzoa9Vu+GEb1Lb7bibm871Y9vTpzzhphfqWrP+uMtuabyR2DkSmLMPpkflc2z57KejDR46sq8/yL5zXREREckK6SjSbLRhwcN8hiDAsjQdaTDSdMwn/Xfxbc+4NAPpiHBaiupHpEeYd+qlN7tgl3UYUu3Kqhx99O5bbggelpMmYx5pGrbPOgRtpDPZXj447otv/3vj9jgvtoe/TvqtG5qn7r3RDcdfdXfjedo6limzYP4sNzRP3P2HxjRo+Fzpi98C4imPTHbDqFTO8RHu3Fg/l/77W2Lb5Jg4ntS1v8+l75j36pTHgyWlLSSCYYcZsf2oD3c79JQNt9vlB8GU4sFN5O3XZjS2gkuwFdcHJrllFAGgISK+tFHkvv33kw+8UWPGNmvsyOYhOp8f2jvzZjb2UUp9VYoDxwVtVsTCboD5sPNAn75retvsUNXseLlhcj3SnSs3RI6X9cOBNE/2LDjlPKzBIVOIaw07Ptg+Wlon22MLy2c/HWHOi3/zXvjrLa+/On3q1sGkoldZWTklmUxW19bWXhJM6pL880yOv+HpYExE8jHxtH28mpqaDk/r5Kur3u+6w/3t+J1T7X6Q4xZNr1guKjmacbl8pCF40E3wQ9AK0lHvzJvlrb3+hrHpH0reWa6tpQVtGjmYcZkbFKcluAqvkwkl7gh60y1PKTKCa3IYLcfY0m1xy3NOFBPGHS+lqpWR9v35fqkkyR+fnN8szcs6c6dVe9/edmRjWsyuNctbabd0ASrHQwYCwT7BfVTcOdo6iDumuM+rKyr0/bRDb9z00bh48eLlP/rlVd6gLYYFU0WkUN5/c7b30B/OWzFr5szewaSipyBVRLKlILU4dacg1YKvMAuECB433mzLYOpqy5cucUEP4taPIoiiPYxocGVBaFygDAuWcw1S22J7FnRTQg12nhYQ5hLw2bUmMCUoR1wwidYEqenWCQfW2XxenVWh76cdWtz3yy+/3Jzh2hts4sZFpLD47SUbGnqNGjUqdYcXERGRdkVdVVh1r+jLAtQ4BEyUniOYIueSAI11CKyiCFCRrl/93v36B+9ys+Gm3wneNZVuewRxlMQjZ5fjPn2fLRsbjEqn34C1g3fZswAV0XqubYHuIePEBcPSeh0apCYSiXUZFkujSSLdjf326urq+rk3IiIi0q6obwly/sixy/QyqbqWR7qAlIaICEqX+dshd4/lCtnuxfKlXwXvWkZVJ1rkJSAniOS4hwwd4c6d4s5tiWtw6V2p1pPZFwF9W8o3qJf8dHjDSSLS8RoaGgYFb0VERKQdEViicufvuyKlmV7mhSfudQEegRh1PilWeuUDr7jipywXl/NojSmFuxFsC+m2R1cvYQTWk68+t7EBqasenOqOm2OmvuiwnXYPlmxuyeIvgnfNkZMcF4DSiBH1VC34vXfiRW7YVubPeDF41xTnKW2vQ4PUkpKSgWv07vdNMCoiIiIi0qVZ44k1L/3DDaMIeqKBGN2f4KCTzmlslCgsLqjbZofd3NAaxYyia8B80E9qHHozAI1bghaJCVAJrAmko41GUvc2yooS0/hRXPBHXVZykm/9TfNcWCt2S+8T1qtEuIXkbGQKjq2YdhSNnMIePkjb6NAgtaGhoVdpj57JYFREREREpEvbaa+D3JAiqXH9fVKfkkCMxpAM/ZJiedDTQBhFagnIomw/T07+Q7OAjxZp49bJBt3KRLdHMEgdWHJvrVEly1mlWHIU6z9861XB2GoEmvRDimfuS3VrE/bXSb9zQ1smDtuw7m3oEofA1lj9XHKlw9PR0jUh4I4GveHz2GW/w91Q2kZH56SuqF+1stO2uiciIiIikguCOOpk4srTD27MNSVIuumikxsbADps3AVuiB32TAWcFJ8lULLlaYwoXQNEth+CK+qFEsyyHvvL1DhTSwhG6erFtkervtQ5xdFnrO4nla4MwfKcF8fL8hz/ZT/dN21AOPbYX7icUFoKZj3W4cV7cmuZF+2rP4quDsnZ5NwtsAW5uZbjeeOFP2s8Js6Ba8K2M+E8ueasw7rW5Q25xdHuFaV1Ojon9eNvli9ZIxgVEREREenyqJNJ3UmCKHJNrVVfgjByI6l3Gu6T/eCfnusCIZa3VoFZnoCW+p4sj3ffmO2GhvUsUCWYtYaX2Eem3MhM6DrnMz/wtO0RTBLcnTJhUpOiyASETAPnxfGyPMffx1+eRo44J4RzlDnvc69/yB0j67EOL7s2zMumRV0L8lmPoNIwne0QXNoxcQ5cp/2O+UWwVHMEtyzDNWcd1mUbTKc+rLStDs3FrKio2C2RSExRX4AiHYd+r/zf4RazZs16K5hU1NRPqohkS/2kFqfucH8jtxLhxo/iWH+h//3kAzc+aLOtYuucGnLv3n/ndfd+nQ029rYZVeUCNoqd0rgS4vZJEDhn6vPuve3D5VDOedXVIY3r9zSKnFOOc9SYsV7vvv1dnVPGw8cRh3OcO63aWxYUVd5ux90aA3A7n3THED7fdNcm07W2Y+YYozmd4W3bMcVdE6YRlKaC0b80uZbhc+nqCn0/7dAb97Bhw7YtKSmZ89PL/6JuaEQ6wLKvvvT+9KsjvR49emw4ffr0TtEDdWdPtI0cOXLdurq6XfzjfySYFKuYEnH8yb9R80pj/Z2Ru+7rbT9m/2YJEv64H7jxN65ezkaDt/CeuPsP3rIlXzVbnu1Mn/JEk5YStx65i0v4RBvWAImvV6c87s2f+ZLbXp9+/b2tR+wcewwmVRTrn97CIFeB/u123f+o2O2nw3m/+OT97qn7Wutt5OpH2fbC52THN+OFp5rNi5PLsdHlBPN/dPKvXILqpacecNeAZalvFk5Evfz3h921jc6Lih4v13OEf8xxRdXC1+DLzz72/vHgrY3Lv//2fHcO3z/0pDQNuXzp3TxhnFv+1EtvDqYWloLU4tQdglTpOqJBanfVrYLUqqqqXosXL15+8M8v9zbZangwVboiS5TGPcmSjvPe67O8h2/49YpZM2f2DiYVvc6eaKuoqBicSCQW+G9r/POYkC5YLYZEHEGG1beJomgXRa7CT5Dtj5ziUNOefdgVLwPLXv90qjVI6v1QrCodioaF7xHcO67+5eGNndKHxR0DqC9kdbqiotvPhKfzFIujaBuNb9j5GIqpjbvsltjjYx7Fv6KBaq7HRkf9JIwIPOPWo4gfOQEcZ1Tc9gh0b/EDx+i5IO6Y7RpQLDH8uVFMkAcFFNvjfVwQSoBLcUC+DxRt7AgKUouTglTpTBSkphT6ftqhdVKrq6tXlJb1eP+LT94LpkhXRZ9aJHR4Ii/Fg99eaWmP5ql/KYRKP1h92E+szfID16J8ckMumDUIQd0h+rejnzurR0WDHwSyUQRT62082C37xyfnu0ASBEhWd8n6+bNtWt0oGgUJo8ELAkACHbYVXp5jIOc2jKCK/Yf3wXoEmkwjaCLBkQsCMc7HrsH5N6Ua7uDaTDhhr8a6VdF5FIULy/fYaIWS9ViO5XlxPUDAaYF0dN5DtzQNDMnptgCVZazPQqsXxjHzUCKO1ddi+6x3yCnnNzaKQn2vuO/BzCCnlr4gRUREctGhQSoaksl/L/78o2BMuiqa/KZiv5rnLi789upWfZNfG/TSVooyWCWgJDiicQnrIB3k6FH0lICFYCeuiwCQw8iy5MrZuhRVBV0DRBvXOOasVEDFNq1YMQiAQE6c5fCFl+cYLUBiaDmKBMa2D9bb7cBjG7skyLWDdwLI8DWgGK0FghxvdJ41vEERadPaY+P+yXIsz4vGUMD+eWgQnme5lgT34WtJ8WuWJ8BnGa4jOHbOwRoSIQc0inn2GbCevchZQDQg53ytkZO4osAiIiKZdHiQmqyv+3/vzp/xTTAqXRSJGSq0q6hvcVkwd/pSfxDfy7c04QeQ5TT2FnlVBrMdf3xwZD6vwcFsp6SkZKvgbVRRBavWyfy+R41zgUmU9b9nQWQYQZ0FQGEUCSXXjgY2otgHuXmg5IUhyEG0bzqWt9xLOz4LlAjCLGgMs/sPgVg4eGvJkKEjml2D3v36uyFBWnSedWQf3kdrj822acL7HLbT7sG71Sx4DF9L+6zIBY1ie3zWsBzQMPtsouzBY3Sd8PmKiHRmymjpGB0epPoJtr998dF/1ljy5efBFMmExAtPuSk2xiubYmsU8SKBx/IMW0qcRZdnPBOOwY6HY4vbPtNsfhyeuofPi1ycdMLbCa+XzbnJavzmFn3yfl8/MMrYgE93RoBJ3flglCBySuR1XTDPHBddhmmpWSnJZLJpedbmCHw7vNKL/Zb+89a8xt9l+EXrh4irK0pQlw4BWjjAYj/83qmrSpcGUVUHHOOGFLk9fZ8tXZ1OfvP89qPBnrWOScNCccfMy4LecPDWEhp1aq3WHlu6RpCyFb6Pxz1AwMabbemGBMpRm245LHjXlD1wiD6ssKB1hz1+6IYiIp2VMlo6RlE0JjBi5Mj/7n7Ez9fe5rv7BFMkDokYKy4WRsLm9N/d1izBRiKOOmUUh4uieBhF9sJYfvI158XmjPBU/uSLb2ySuCTRc/vlZ8YmaKLbz1TpnOAyrlGSdOdlDYnwRIv6a9H14s5Nmpvz4t+85x+Y9N7MGdO/FUzqFArZkAiNe/jG+PtKtTXfBgh8/eCVhpOa8fe1wp83qUePHleuWrXqo45sWITfWbbIzUSm37khKH3q3pu8BfNnxd47QL3OcFDGva/60cnNAmJy6ej03e4RtIQbd7+LE91HHLvn8gQ92rWBzYs717jrkO+x2edg1zjM5sWdi+3P5mXz2dgysP1lugbGOtinni1Fe/kv+fl+W7t7+JUPrC7y3BHUcFJx4t6qhpNEOpdu1XCSSTYkn3hz1ourglGJQU4DCQWK0dFiIwkPEgQkOEi4XX/+icGSq9EABokUimnZOtZAB41gkHMRRt0yEhosz7ZZnvVIaLCdh/6UqjNlLEAlociyvEjI2PbT5ZqGEaCSQ2L1quy82CbnRcMscTm5n76/wDUyQo6NHavVEWPfJLYks7dm/b8V9XUr1ZJVESA49Qe/79mz5xD/D+CMYugOiN8xuGfY7zvdK1vcx845dEfXCBC5pty/+N2zD4rupkNwRLDDvljeip5yv+IeYbm+dHUC7gXRY4y+Ntz0O27ZQimWY+Pe2dbojgZWRFxFfUVEpLWKI0hNNjz+n9dnldTXKU5Nxxoc+dnFN7riBjwZ54k1T8QJIgnowoEZwR8BJIk5GsSwdWhc44r7X2kMJMMBIAlHsDzbZnnWO/v3qTjG5oP1bPvUM2NZXiQmrQGQllryJWFJgAqCYXI/7bzYpjXMEm29E5wvCSDO346VRj0sUKUPQkmP39p7/57VI5FIPBNMkg5QjMGpsSK71L2033e6V7buue7XbsjDLLqk4ffL7577UrTERBz2xfIX3/aMa2GW+w/3CLq3QrhIavQYo69oPdL21tHHZoFvNDc6bPnSJW7Iw4NcNBb5ffZhN1RRXxERaa2iCFJXrlz5dLKhoeE/82cGUySdL4J6TWFHn/Fbl5tIxW5T/fg9bnjQSec0S/AwbsHctOcec8OwLz/7MHiXQll8y02hGFfYMj+BGJ1GgoXlf3jcL4Mp8eZOSz1tJ0EUV87fWq8kF9dySsL2POSE4N1qW1aOdkPrJF/iBb+1lQMGDGizYqySvWIOTs3gIKhK97CJ3yRFSikOmg0ebFmAFFdsNO43zjS2Hy31Ae5Lo3ZvGgQN2izVJhXBUvS+ZCia6uq/xuyvPXX0sXHf54Em0pVysZxQ++yzZf8pPDDgYencac+7BwjZPHgQERGJUxRB6rx585aUlJS+9M6cVxqCSRJhxanIeZxw4t5NGjQiJ5FXuDEMq+vVu28/l2iIvqxlynAwt8OeqdY6L/rJHi6xRELGEkvkdISf8JP4sBzc8w4f7RozoSgfiS+WseUzoUEWpGuUhO3YE/2P3n3LDcPitr/2+hsG7ySTt2pfWuVHSk9UV1fXBZMk3sLS0lICyjazatWqz4s5ODW77n+UG/KQKBrU8Du/8cKfuXmff5RdP9e9+vQL3qXqPobZ9qJ69+3vqjlES32Y6f9MPWRbZ4ON3ZD7IPclgqVo9QRwn6KIMK90jQe1l2I4NmuEirr80evJZ2ylZeyzz4X1hfrYnb9351i1/9FuXETyRxos+tCK3yoP7+IeZkXvrSzDsukeTEl2uK5cx+j1lfZVFEEq6utX3Tb35b8nl30V/4S5uyOnkbpYIAAlWCWYPPew0c2evIcTHzSCEfci4RdFzqUFhSSUqPNJ/TELiqNP/2nUyBJdJG6uO/to11iGBbgtsWO2HIZM3n/n9eCdtBa/sfmvPJtoaGi4N5gkafiB5JCZM2e2acsvPJQr5uDUEChRDB/cCyzXlPvNZT/d192HqDZgJR5awvbs/jLxnGNdUMb2GPKgizqqVg/W8KCKosGwh2esw4t7n1U5CHdpw32J7XBPYhlbnvuYBWEnXTDRDQuto4+NHGw+A+7Z1OW1z4DrymcMPvN8gmSCcM6NBxfYZofm3QyJSPZId5EGi7b2TekW0nDh6aSnuI/wkCiMZVi2pepXkhmt2XMdrVV7KYyiCVLLy8vvKykp+ffLT9yt3NQ0qIv1xyfnu6K01iAFOZnkMkw4Ya/G4HTFslS9IpDAy/QK9/lEgpA6YtT1Yh6JP1hQTENM4UCV3NRwYyZWlMwCXBJAUnz831h9oqSk1qdHq5IRD8eoSsBvm+DDcjW571C88+Lb/95YuiIbtBBuQRJBGdtjuM0Ou7lt7XfML9xy4TrlBFbcjwiAuLewDi87BurQh4+B+9K51z/k9sMytjz3MaZxv2qplEd7KYZj4x7P9YR9BlxXPmM+67iqF9my0jj8dxQ6p1qkq5kR018xSLfxGw5X8SIY5T4Spf492wb9VHMdo/1VS/sqqmbZ6cDeD1T/7ycX31YyYL2NgqmSCUVsH771KndzInClwSFY1wQEtbkkIqMISudOr27s6oUAmaK86fA0j0ZMSPiAFjtJmFFEghxcEmIkkkAQSyKJH35cHTVYNwoknnhSj0xdMsTtR1Zb/NmH3p0TTmxINjTs0ZbdqhRSV+2SIarYumjgt21P7mmEJ+6+wv3io3f/7Yr28rtPJ922WlqfB3H2EC7dMYTZ9kBiLdfAyY4zbl2bF3es2VyHbI/NipfFBa82L+5a2LXKdJ1s/Uz7z3QNosiV5d7f0v9EIakLmuKkLmhaFu1GKhOlfaQQCn0/LQ2GReGTTz55feNNvrX314s+3+g7I75XNLm8xYAb0JyX/9mYu2k22GQzb+Mh3/H+9bf7vLXW38j77t6HuOkvP/NXP6hc5G36ne1ii9OSgJn1wtNeaVmZN2Dt9V2C6d1/z/bemvNqk+V79uqdGk+UePOmv+B9p3K0f7PcwSVc3n5thvfVl59562wwKFiabivK3fy3585wOQU77f0jN58GnzjG9QcNaTzGLz/90Kv9f//wSkpKG6eFcUx3XXW2e0+RQraNR2+/2g0PPDE1LyxuP7Las3+ZuHLxJx++UlMz6+JgUqczcOBAWv16179ftHuQXVFRcdy3vvWtjz/88MPVxRMKxD/PS0b/4MfBWMfj98dvmRf3hThMZz73lEzSbaul9Zket146tj1edv/IhR1n3Lo2L+5Ys7kO2R6bLRPH5sVdC7tWma6TrZ9p/5muQdS9Ey/0A9pPvJMu+EPG/RbS1Cf/7H388ccTgtFOp5D3u0IqtvtbGA9bvvDTJ6R9SOtMf+4xb96MF9208nU2yPjdZvnXpj7vMhDenDPdrbOGv3zc7ye8H6pIsc7ypV97JaWlXvVj9/hprmqXjivr2cv7YMEbXvm6G7jt2LLh8ZqXnvUWvl7jtrtq5TdNjp9t2XgU6axZLz7TeLzsn3RlnPDxhtf74J3Xvb79y7O6R4B1UrnESXdvicO+OJ4NN92i2fUmPTz12Ucbr2+6z8SuE2lSWye6POfx+qz/547Hzr9v/7XS7jPdMYe/J2ynV5++sfd/+zxsO7l+vzpaoe+nRRcI1q385tdvzXyh9LP33w6mCG79zXhX5JYfStQH77zhhtYPH6yBjIduucL9CMMYp49TtjfHv5li+dKv3FM4ckyjy+PdoIGlPn3XdMN35s1ydVCj9R/A+tYXX7ixlCirs8STwrg6rNa4CE8Gc80Bkeb4Tb0968WeyWT9GcEkaUEikbhj5cqVLVeaFunm+G+yEj0t5XCLFDNKA1CHk3QJValIKzGNakzUnyfwiSLdQ+kw6pCyHMvbOkyLa6Hc9sN6tg7pqlef/5t7z4N+WLF8K30SrZPKOMvAqhFYHVSWCY+HUeeV8wkfL/unvny4bRNj2+G6hNfj+qQ7xzgEgqz37F9vD6Y0xb6ZX/3o5Cb3EqZzbNauCi+OgWOJS0PadWKercPyz9yXamuBz5F1OWfbHu/jtpeuTiqfO+fN+dv3hBdtKJATHk1P2+fBdqLrZTqX7qroglSKIJaU9fjb8w/cqFZHQ/Y9apwb0uAIX2wSBLx42vTXSb9183be9zA3xK5jj3K5rtywaOSEL33qSdAjrm4piQnqILEcCAJJXFCkl+W5edk+uIFSZ4k6YRZY0lCJ1VPjh2jb50d/84Rxbr/sP1ORP/ZJsTDw47TzYhs05MFNl30eNu4Ct4y0zpT7b1yZKC19YtasWar5LyJtgsZa+A8gEYg9Y7oGE+lseNBOumS9oK42RW4tjUQgEw3iJl+Tqr5EuofGx1iel3X3R13+uOBjwbyZjdWeWJ7h935wpHtvJedIJzFO0f04pJEsLcU6LNtSuok0HsER50ObIqzDeXKOpN9oWC0uULXrQj/adl3C50gariWN/Sr76cq4TBHLPOFYDDmOHBPHxnTbN8fOOXBMcQ8PQOYL67A814nWy9neLX5alXXt2tu52PZYpiV87pw3aVX7nPj8+RxS6eOmbbkYAnDWY3+sw/mQIcO+02UWdUdFWaS2ftXKCz58e17J3P+n+gqG+j32Y+SLTYLAngyBH4XV2QRPn2hQhC89P2p+cCzP0BrpoKXJ8FOqY866onF5bl62D26gBKQ0+GE5mqxnrfvyQ7Ttc/NmnO2w/5ZwXvyw+YHbebENa8iDfWYKdCU7/JY+emduWf2qVb8KJomItBp9ZXPPB/9DHdUolUhbsgftpGNIW/G9ps2P1QHZH9wQBDP2IJ/laXyM5Xkde/YVjeu8//Z8NwyzIIl2OVieIekr3vcbsLZbZuPNtgzG40sokEZiGbAOy2ZKN3G8pPHAb5ZGOVmH87Rz5LgeuPE3bpkwCxKp92rXJXyO4Ubv0uE8bPm501P95YdZ12I77LG6H+y/TvqdOybW4xht3xw7QR4IOuMQULMOy5PmJB1LP/1sj3S1XfvoudC+SiY8dLDPnbQq22YbfP58D/j+kN5+4YnmHSlwHUn7sj/W4Xy4pqR7Oa535rm+7Lu9ogxSa2tra5LJhvHP3Tsx+el/3gymCj9GWt7lpsJNjRfvr7j/ldgWGbkR8KWn8SJ+DLYO40yP3sTSLc8THlrxjS7PuLXua8uGtx++odLoBvPiWpjjh805hM+LbcbtE7ZMnEz76a4+Xvi65/+WaDX75NmzZ7+Wmioi0npn//5+d7+mkb7WtAwsUmwOOumcJukYWJdb4VxA+nMmnXTM2Vc2Wx5bVo52w3C/9GGFbjGWAA1kJsT9Zu0cefgUl5sYV1qipXOMsn6VZ0ZaMGZ/VtLP0n9cZ6434ro8I8gjICS4i8tNTdcXPwgWo8YceIxLj263427BlHh27LRKH5ee5vsDck3jkPaNoqV7qNvFlKJtnMgPVK8vKSm999EbL65T36mr8QSImwpPfnjxPu6mGMaPhx+DrRMX+IVFl+cJTybcIGzZdNvnuJmXLhHDOYTPi22mY8vEaWk/3Q2/nUdvuHBVMpm4s6am5tZgsmTvzrKysubNSIuIwz2X+3VL/0MinU1c2ofvOQERrHVuprFsXLqDIrNxOahhmdI77eE/b81zw3TBG+dDAIuP3n3LDcPijnft9TcM3mWH60UOZDjYhwXQ1q4K7Dpz3XlvVdHCL4JaxAV3cQ8BrOoa+6eeq1U3A2lYPsuW0soE00j3kMG+PwTC0eK7dn2j1t1wk+CdoGiDVPTr1/ekb1Ysef1vt/62PtlQH0wVkWzU163yHr7+16tWfrN89oABa54cTJYc+IH98TNmzNAjTRGRbsQC0ThWDDeKXEDaCaFNDepp010eDehQlamYWO5oXGu/Ue2Zo2f9KoeL/FY/Tsu3njdqzFg3hDUOSlBo1dCiL8tpzRYP18gtJVAmiLTqZqfvs6Vrh8UC1kwsFzZdXeEwC7QlN0UdpFZXV69YuWL5vp+8+8bX1X9N9f8pItmhiO9/P3r3q9KSxFj/t6SGyERERLKQLhBNx1pqpZ0QAiYaRCK3jDqP4QaAZLVokV8r6ssDAoJIs2zp125IbqlV90r3yqXoNLml1z/9hgtWqYdKwEqRYdphIWCNa+hKCquog1TMmTPn/bpVKw+qfeHxhtrqVGVqEcls2lP3evOnPuslvOTY6dOnq7iqiIhIlqwxsDhLFn8RvEsh142cOIIcAh7qZxP80DYHbYlsuuWwYMniYAFgNrmk2eS25ovisASelgvaWNR3/6Pd0Fjg2ce/vlbdK90rn6LTBKs0YMRnRpsq9lCBVnYzsSLG2eSSZpPbKs0VfZAKuqVJeN7Rzz94U8O/Hr7VU9FfkXj8Np7987UNLz9xNw0lHT5z5sxXUnMkH5WVlXeMHDlS/aSKiHQzcV2wULewsS5iEBC9/PeH3ZDcOAKeaP3s5Uu+Ct4Vh29tPtQN58940Q2jOEcL0jfcdHM3bC8WENLgkRX1tfqihgYxwXWPa8gJrE/OZ7r5UXy2cctTD5WWgEGuaiZWJDzad6qxRpwIZlVnPz+dIkjFrFmz7ks2NOxR8/yjyx6/eUJy1TfLgzkiAn4TD/3hV3Xzpv3z64aGhqqampq/BrMkf8fV1dWl/iFFRKTbCHczYx7605VuaN2UYGnQuGdcUEMwRPHRYmJBIIFoXJFWO0eKK4eL3bYH62am5qV/xBb1BePW0BBd0URxjel+hq4QF32eXcGxKY9MdsvHdTNjDyfIGc9kxK77uuGTk//Q7IEGgf7Dt6b6rg03AiW56TRBKlyOarJh5Htv1H70wNVnNiz58vNgjkj39tV/P/H+/NtTV374zvz/lHjJ0bNnz45/RCoiIiItohgqDSCRI0aRXhpEIuAkeNn3qFODpVYHK8yzVmJ58f7K0w9uMUeuJeTUsr1oC7FxqAvL8UaDpjCCProZBIGaHTPrhc/xsHEXuGXaEzmX5DRaIL/PkauvaxjHwjFFP5PnH7m78RqTK5ttcV+6mQF1iGkoybZH0H79+Se6eeEHEXHINWef7Jtj4FhsG9eceURj0L3r2KOCNSRXnSpIBS1tJryGkV9+9uGcey4fV69+VKW7ox/Ue684beWSxf+d7v82dlRrtCIiIq1D/VJyG687++jGFmQJqM69/qEmuX0EKxbQWCuxvHhPv5f0bw8CyFxYf+8EcGwvU91H6jwSEBEwcbwP3PibYE48uhkkUCXws2NmvfA5ttQFS1sJNyy1zaimRX0Nx8IxcWzhz+Su/z3HnTPX/5izrgiWbhnbs9Z9ub62PYJ2Wu2lwSvqE7eEfbIsx8Cx2DYIUMn9Peva+1TUtxUSwbDTGTp0aL8+/db8S/2qVT8YtuvYxOgf/Njr1bd/MFek61ux9Cvv5ScmN8z+1xP+Dznx5/791zyxO7TiW1lZOSWZTFbX1tZeEkxqN/6+/F0lx1CKI5hUMOx7/A1PB2Miko+Jp+1DV1KdNq1TyPtdIRXz/Y2uY3DHSx+7Oos06EMLszQiFNd3qiH3cs7U1F9Fn75rumK1FsySy8Y26FrFptFdDWjwJx1y5qzOIw0IkVNITt1/P/mgybZATuurUx5vbA2X7XL8FGldZ4ONXTAdxTp0AcP2YPuIk+l4W9pPJrmuG74m0esclu46hXH+78yb2diIVLrt2T7TXZ/w94RtfHvbkbFBfkvn2tJ+Olqh76ed9sZthg8ffkRpj57XJBIlG+ywz5Glw3c/yCst6xHMFel66P901j8fpgXfVfX1dR/647/0EzDdpq30QibaKioqjuvZs+fTHdFCsoJUkdZTkFqcOkuQKiKrFfp+2umK+0bRoFLf3r2+XVe38vyXn7h7+Z2XnFD/+rRUi1oiXQ3f7Tsu/Mk3/+/xO5es/Gb5OWv267t5dwpQC82/tneqCx8RERGRwur0QSqqq6tXzJox46r6ulUbrVi65JZn7r664S9Xnp4kt0mNK0lnx3eY7/Lk3/zsm2fu+t/6JYv/+8eG+vpN/ADq992heK+IiIiIdC9dIkg1fqJ90avTXh6X8Lwtv/j4/bteevT2Jbdd8GOPgHXaU/d6iz/7MFhSpLjxXeU7e8/vTl3Jd/hfD9/6xX8/fPeORCKxlf89/x++68GiIiIiIiJdSpcKUs2sWbPeenXaK8fPeHX6mg0NDd/78rMPb5nx7IP/vfOSE7w7Lz4+6Sf4vXmv/MO1ivrN8iXBWiIdg+8g38W5/+9pglHv9guPXcV3ddrT97//2fvv/IHv8KyZM9bxA9NT+W4Hq0kBVFZWLhgxYsToYFRERLq4Q8dd6F4i0rE6fcNJuaioqKjs3af/MYmykn1WrVixSd2qb9YMZnl9+q9dV1bWo5RmUoNJkoWG+no3LCktdUPJTn1DfV2yvsFb9tUXZcEkGvxaVFLW4/WVy5f+zR99wg9Ka1JzJKyQDYnQuIevw1r3Dd6KSCuo4aTio/ubSOek1n0LxA9ay0tKSjZvaGjo548OTk2VXCQSCdfrsf8nepubILmgPun7/ndwyTfffPP6vHnzlK2fhe4SpErx66oBhBQPfceks9F3VkSKgn8zuoNXMCrS7vgDrKioKMifn7+vpL+v3YJRkSYK+V2U7knfMels9J2VttIl66SKiIiIiIhI56QgVUQkjWQyOaS8vPyVYFRERERECkBBqohIGrW1tQvphzkYFREREZECUJAqIiIiIiIiRUNBqohIGhUVFYOrqqp6BaMiIiIiUgAKUkVE0kgkEgsWLVo0OhgVERERkQJQkCoiIiIiIiJFQ0GqiIiIiIiIFA0FqSIiIiIiIlI0FKSKiKS3sLS0VF3QiIiIiBSQglQRkTRqamqGzJw585VgVEREREQKQEGqiIiIiIiIFA0FqSIiIiIiIlI0FKSKiKRRUVFx3KhRowYGoyIiIiJSAApSRUTSSCQSd6xcuXKrYFRERERECkBBqoiIiIiIiBQNBakiIiIiIiJSNBSkioiIiIiISNFQkCoikt6dZWVlHwfvRURERKQAFKSKiKRRU1Nz/IwZM14PRkVERESkABSkioiIiIiISNFQkCoiIiIiIiJFQ0GqiEgalZWVd4wcOVL9pIqIiIgUkIJUEZH0jqurqxsYvBcRERGRAlCQKiIiIiIiIkVDQaqIiIiIiIgUDQWpIiIiIiIiUjQUpIqIpJFMJo/v2bOn+kkVERERKSAFqSIiadTW1t45ffr0j4NRERERESkABakiIiIiIiJSNBSkioiIiIiISNFQkCoikkZlZeWCESNGjA5GpRurqqoqq6ioeJnvhL2SyeToRCIxPjzNf/0xWEVERETypCBVRCS9wfX19b2C99KNVVdX1/mD+/3XYHv5ASrfjfLwND9wvc0fioiISCsoSBUREclCeXn5JD8IzdSQ1iO1tbU1wXsRERHJUyIYimSlsrLyYQapMWfdYPh5MESN76DgvUib8r+DU/xAodoPBi4JJrUbf1/+rpJj/H09H0ySbq6iouKXiUTiumC0Cf+7MlxBqrSlQt7vRPLh3xP/4d8TNw9GuQ8O9MdX+G8XpaY4z/vpwuOD9yJZUU6q5MS/+dzlDxqLtvmvfsErXNyNZUREupwMuanKRRWR7uge/9WYBkxTDULpQsmZglTJiZ8Ie8QfZEqI1QTLiHR6/h/rED8oeSUYFaFuKjkEV6bGVvO/KxOCtyIi3Yb/H/ln//73VjAa53k/XajSSJIzBamSs0yJMSXUpCvx/1gXBkGJSKOY3FTloopItxQ0Kvfb1FhzShdKvhSkSs4y5KYqF1VEurxobqoSYSLSnWXITVUuquRNQarkJS5RpoSadDUVFRWDq6qq1AWNNBPKTVUuqoh0a+lyU5UulNZQkCp5iclNVS6qdDmJRGLBokWLRgejIo0sN1WJMBGR2NxU5aJKq6gLGslbRUXFgX4ini5peFp2kIJUKYTu0gUN+w7eikgr1NTUdNq0jrqgkc7ETxce56cL7+B9R/13StehIFVaxf8DncXQTwQMdxNE2ll3ClLH3/B0MCYi+Zh42j4KUkUKpKqqqmzRokXz/UD1ff93NyaYLJIXFfeVVvH/PCfwCkZFREREpBuyuqlKF0pbKMjTRXIEgrci0okUYw5EgXNSF5SUlBw5c+bMgveVqpxUkdZTTmrulGYTkY7GfbtgQaoSWyKdS7Em7joi0dYRdN8UaT0FqbnTvUdEOpLdt1XcV0RERERERIqGglQREREREREpGgpSRUTSoDn9UaNGDQxGRURERKQAFKSKiKRBf28rV67cKhgVEZE28t5bc703Z0/1liz+MphSHDgmXiLFgt9I3Pcy028oblpn+24rSBURERGRgnrgxt94vzv1AO+jd/8dTCkOHBMvkWLBbyTue5nuN/T8I3d75x0+OhhbrbN9txWkioiIiIiIdCKDtxzmbbvjGK9Xn37BlJS7/vccb+nXi4Ox1ViWV2ehIFVERERERKQT+dHJv/LOuvYv3iabbxNMyYxleXUWClJFRNK7s6ys7OPgvYiIZMnqy2VbBy5dvbtMbPnPPnw3mJJZeB/ZrmPC68bV98sk0z7tOsXNY1o+8xC+/umO184pvI2W1snE9mnsGJmeTniduOMJs/m88jm+OOHr1JLw/tMdI6LXIbxeNuy6ZdoHbD92LWw9E91ndDyqUOeXrYJ0cK2OoUU6n2LtBL8jOrfvCLpvirResd7HstUR97vW3ntmv/ycd891v/Y+/WBhMMXz+q45wNvvmF94+x19WjDF864580jvtalTvDOuvsereekf3pSH7wzmxC9vSBA/9KcrmywPijEeNu6C2FylXNY5fudUg+53vLT6+STrX3PmEd7C12vdOtnkRrHOM/dN8p64e2IwJWX9jQd7R5/xW2/YTnu48SfvucF78MbLvLHHjnc5Y2E3XXSyN+25R2P3effV57nz+cn/XOXtduCxbhr7fOGJe70nJ/+hWXHPuHMlqKCO4qHjLvQGbbaVd8uEcU3W45j2PuIUr9+AtYIpmdln+scn53uTrznPHbvhvE+6YKK3xbAdgykpts6ldz3nXXn6wY3755js8ycoov4ly4WNOeg47+Cfnpv18YVl+z1Frt+58HWIrpfpux13nnwGw3bavbEuafh7afs5/6ZH3XW171KUrRP33Uahzi9bdt9WTqqIiIiItNrUZx/xrjv7aJfw32GPVPBDIEHgQeKZRHQUgRGJXJZjeRLGtjzbC7NgkeUJekjAs87grSpcopkgh4R+WLp1eG/rsEwmN/vHSIDKfk6++MZgamYEaQSo7If92blxbbhGluu03Y67ueFr0553w7C5wbRw0GJs3jY7VLkhOE6uW9/+azWeJ0MCh0znOn/Gi+6YWC+8DsfPNnPFOgSo4c+U8ybQSpfbdv35Jzbun+/OFttt76bzeXLcHD/X346P68pnymfb0ucXlcv3lG3TCFEu3znDdcj2u03OZfQ8WY/1H7vz98FSmXHNWM/wPjwep1Dnlw8FqSIiIiLSKiSyJ118int/yoRJ3qmX3uxyU449+wqXSwYSr3EBBfNZjuXJMbSE9YtP3u+GhpxJCxYv/NNTLueRdS6+7Rm3Dgnk2y8/M1g6hZyeuHWufOAVF6CwDttNhxxLCxzOuva+rHLtuBYEaST62Sf7i57bs3+93Q3JpSIg5BjD14bAgGMz4eCOeQRYbH+9jTZ108gZ5Dhtn3aeDK+4/xW3D7YX15qynZ8dK+uce/1DjcFtrgEH6/AdCH+mBDK49Tfj3TCO7Z/vjuW48nly3KzP52zHx7J8fly3TJ9fVK7fUwIx9h/3neOYmEeAHWfBvJlZf7f/Oul3zc6T9fgc2E42uGasZ3gfHo9TqPPLh4JUEZE0Kisr7xg5cqT6SRURacHcadVuSMJ2xz0PdO8NgRg5NLyWL/0qmJrC8tHihKPGjHVDgp0wcm0w7rJbmgWLJJIJ0Ahawjk/05592A3j1hl77C9coDPo21sHU5qyIrW5BKhY9HmqOGUfP8iLrsO5sc+tR+wcTCE3NJWb+k4oGHn7tRluyLL44J033BA2z9ZD77793LU8+GfnNdsn47bsm3NedcOo6PXhMznm7Cvd+5kvPOWG2Yr7DhDI8PkQXMflzFUdcEyz42Y5Pk/WY/0wlj3klPPde/teZCOX7ykBrX0H474/4XPiIUFU3He7Mec89N0mILai0RRfDmP9Q075dTDWtgp1fvlSkCoikt5xdXV1qUocIiKS1owgkNmysnn/jCCHhpfl/Jkthu0QvFstugzISbQcn7j5sEBsztRUUVhbh4R23DoksMlJiwYroK9JC35yCVBBjpbljlJ/j5xIy5njONin1SPFiF33dcM3Z09zQ8yf+ZIb7nnICW5o47D3lTt/3w3BPgkq4s4FFKVNJ9013WzocDcM1y3NRvi4wqKfTxh1YqNsOQvUozhmPls+43TFiKNy+Z5+9O5bbhrFWOOuD+zY3n/ndTcMi/tuR4M62MMJ9hP3PQsX6W5LhTq/fClIFREREZE2sfb6GwbvskMOYDa++PQjNyTwowGYuFe6HLX1Bw0J3mWPviYNjRHlynIhyVGieOnP99vam3Di3i74JQcrzILBcL1UzpPg0QJeq4MKe7/Z0BFuGEYwTMBGvcr/u/lyFyRnujYYsnVq/1HpApeWbLjp5sG7ptbdcJPgXXNx34PPP3rPDakbG/2s7UUuXxi5r5x/9BW95tl8Ty0wy3Qdevfr74bU643K9rtt++kTbCsq38+hJYU6v3wpSBURkW6HREtbITHIK5oI6izI5SnW4+/s11bazn8/+cANCdjI+cn0WmeDjd2yrcF+aDkXtJab63eQHM2rHpzq6ugRbILAk+D3nEN3bFLPkyCBHEHmE2SyL4KvbYOcxyF+MEpuoQVgvOc8o7lu/FZoBIcGiqhXSXBHkMyybD+dTMFjPtoqqLJrzrGHP9+4V68+qYCJ1nE5/+hr+pQn3Px8tPX1SSfTZ9SeCnV+uVKQKiIi3QrdOpBoaSskBnlZPbTOhgYuivX4O/u1ldUIOFrzsMGKgxKw0UBLple6Iq9x0j2wosEaiuQSABEU0rBNrgjWrBEaAlYa6mF7IHc1fD2sWCVFP9+ZN8u9t7qyW4/cxQ0/XPhmY51Sm2YIevmtgDqVdEvCPuluhGuSKTf53TdmB+/aRlyd03wM3nKYG1JfNfoZR19WzJR1wsGrvbJ9cBH+nvbpu6YbxuUiRrUmMLf9LGzjz6ElhTq/fClIFRFJI5lMHt+zZ8/mFTGkU8u1fpWItMwSseka5nnh8XtdDiLFXfOx1nqp5gHIGbT6nVHRQLh83dXrxGE7PLA6fZ8tgymrWdBjDfZw38ilBIbliBquD8EzAZXlrIYfvlj9PuqlvlHzintvxYCtOxamW0BhDdSYp/9ykxtSzJg6lRQTzjawIAc3jp2vHW+2CKbj2LHH1T+NY4Hl9H8+5oZxCIjD3wfOPRrA8rIHF7l8TzfeLPW9+PT9BW4YxwL8b20+1A3z8e1tR7phuv20VdAfVajzy5eC1DbEzciKJknuuMm01w+xGOi70fnU1tbeOX36dGXhiIi0wBrLqX50crMgknGrE5lvIzAEjVYcMq6OKPu4+peHNylKS0BiAVZccGzb2WHPg9wwDtuwbjXoPiV6bnHYF3VQn7o3FThmw+qXUi+VOqecqwVUBJxYMH+WC7gpihxtoMYCzd5B7lgYaat0gTooWhwXgFs3OaN2/6EbZiuu+xE7Bo49ri5tHPuucG5xx8c2L/rJHu5ahx8IZJLL99TqA3N94r4/7N8eeramcSP7brOfcDFw88Tdfwjeta1CnV++FKS2IZ6IWdEkyQ03H+pRxLX41lXouyGFwsMQ+6NjyHhc8/H8qdt8XvwhtYRlbHlLNDAMj8Me2sX94cL2G5fwQK7HFl0+brt2nMaWzQXXkXX4Q88msYrwNWO9uMQU05kfN8/OK+4a2Dxbz8aNHW+69bORzfFH2bW2V7rPOSyfayvFY9hOe7iAkAQvfS/a94ThNWce4YrMUqQ129y9OEef8Vs35L+U74p9T/iOsg/2zTGEi/sedFKqAaS/Tvqt+24Z3tt/8pgDj3HDdHYde1RjEJFNI0ok6En8E/BwnHYtOF4aMyLoYr4Fn6B+KcVSmcd+wt3LwOYhOg9WXPjhW69q/K2zP+4JV55+sBvPZOI5x7plwXp3X32eC1A4Ts4/FwSjVKuw8+b3b8ew3zG/yLqlZL4rFF1G+PjA/cK2yTLZfq9y/Z5aA1jUJQ7fm/Ldfzr23Z589bmN31P7vuRb+iebe36hzi8fiWDYriorK5Pjb3g6GOu6+BFaPSfqAEj2uInzZ8HTypY6Hu6sOEd0lvObeNo+Xk1NTUHuEbnw7ydTkslkdW1t7SXBpC6pNfdNWjwkQcOfSrhFxzOuvsf9QYM/PhrViGK9ky++sVkigj8u/tCjT+PpJ41GF6K/X7sfsj2KWkXR4iTbivvN53psdv+IIlF5+u9ua8xxSLdcNvdr/uzp0JyEjSHxRr01nuSDOmDhRCeJHhJ6cTkY/OlTLM2QoCMhQp21aH06Pk9E1wHFFElUUfeMz9uuKx2sR48XcdfQ1mnN8RsSNvdc9+tm+0X08zD5XNtsFet9LFsdcb9rzb2H+wQJfQumwggMwl25pPveGfveR3+fBCrU54yT7juWaZ3oby7dfvluX3f20e69/d4yybRP+35HjzN8j4oeV6Z54HdEUMH9IIrfPXVYWZ97thVhtvu05TZHP7d0x5mOfabsI6414fC+TUvfA3Afitse0v0vZJLL9xTp/juQzzml+44RJIZblTYckx1reJ10+6EV6fC52Trp9luo88uW3bdLg/F2NXDgwEtG/+DHwVjX9cUnH3j/+tt97v2BJ57thpKdN+dM9+ZNf8HbZhTFK5r3u9QVcF6d6dymPvln7+OPP54QjBYN/35ynD9495NPPmn3bHc/sbZgo402mvrRRx+9H0wqmNbcNx+9/Wpv6Vdfev+uTbUseeAJZ3kDN93C22W/w918CwJJgBw1/jLvB8ec7p7Mf/7xe/46qTpPux3QNGfhj+ef4P6USAQe4/9h7XX4T70B62zg/f3+m713/T/DVSu/afL7tfshjXV8d+9D3LSwl5/5PxeURH/zuR4bCcfbfjveLX/irye649p+zP4uEbJgfo0317+vfP/Qk9yy5etu4I3aff/G+zR/sN8be6S3zgaD3Hg6bGvCCd/3Fn3+iXvCfthpF3k77fUjb8Xypf753+InChe55cLbYp0rTjvQHQMJjCN+PsEdG8Xc3pozzT+uau+rLz/3Kr67p1u+ob7ee/X5J7w111q3cRpIRNrxrvxmRZNzJ1HK/tn+fj8+3U2z68p5wz4rPn8+pw/eed1PfK3d5JrbOq05fnA8l487wF0Pglg62mebfH7/efO1xuOyzwP5XNtcFOt9LFuFvN+Z1tx7evbq7b6jdEFSUlrqrbX+Ru77s/9xZ7icIuabjxa+6Y/3cd+hAWuvH0xd7e25M2LvH9Rn3HnfQ73y9Tb0SkpK3TK2j+POvTp2W7bOGr37un2yDt+3ky74g/ediqb9Zabb7wabbOa+8wQv/BZb+j+PO05e+x41zjv2f/7XD3K/FSy5Wq8+fb3PPnrPLTf6+wdFziXpfen/TpjHNe67ZnkwPYVlKZYbPkd+ewed9D/uxf3vo/+8TWML3ij/Hgm7Tw/69lDv55ff4a3vB9719XUtHmc6di85avwE95st69nLXS+Og2m7+wFPVEvfAzBvm1Hfc/854XNjm9xrwt+rbOTyPQWfddz3h3tcPueU7jvGMXCedt3CxxS3Trr9bL/bWG/FsqVuG6yzxXaj3Pcl3X4LdX7Zsvt2p8lJ5Y+aSs6jxox14zQlTatUFKmIPs2yZUGlaxJB4SciUfxJ0ppaYz9F/napxJzpyRHr8CdNk+jsgyda9kQKuT494In13GnV3rKlX7txKsRH92/nRQX6uCcXPAkB18iuSUvXjSd9nAM5GbZs3DWLXiNuvpYjE8Vx2DUJX6d0nxfLk/AkAWxP+9KdI9imFbdJlytp5xJ3nFxrWs6z5uzjrjVYjuvFsWy46Xe8V6c87j6f6PIkzN5+bYabl+m7Y59PumMmsW3XN9P3NvyZIbxeunPJh3JSU/cu3xh/XwUvh96a+6Y9xYzLpeT7Su5Uuifk9oSUrhess3nLQWCdK+5/pcn3Mvzkt7U5qfkcm+VAhnOJzbmHjXYJpujT3lyf8lrgzJ82nfCHhZ/wh/dj00lkRJ/Kc56W42HrcL+hLh0PAa58INVoCqJPuMPHbPPCuZp2jdjOhX96qsl+LWeHY6K1URP3VDzX44etE/e9s/PDH5+c37i9fK5tLpSTmru2SLNJ59DSfTpXcfcSkVzZfbvT1Ekl4ODPmEBuwgl7ufckjG688GfBEqk/ThIl/OCYz4s/ZOo68ucchz955pMAs3XYLgklfmwERFFsi3XYtu2DrPXlS5cES+SGP2n+vNmvHUPc/u0aMIxj64Zbi2vpulnXA5yTXTfO55n7Jrn5sPMNXyPec6255lHMZ7vR68R+OU/ON4x53NTAkPF05wgSN1R4Z7m4/YPK/sxfHgT9xq61HROvdJ+11TGe/fI//flHNH4+LM+yvEggM27zGKbbnu0vij8JrmX4+nJ86b639pnZ9z28Xrp9S/dkLUKGTXsu1UoiRXjiHmhYLlf14/e4IWpe+ocbxtUlIlgkIGoL+RybIUcgiqfPBK/Wwme+rD7Q2GN/4YZh+x51avCuqWnPPuyGR42/tNk149w4R7z899RyPLzjOhJUE9AZaw2TQBTcL4zNi8vRocuG6H6tpdC4Im5RuR4/qNfHAwR7KBpm54eP3v23GyKfaysiIl1fp2s4iYrv6/l/dCQ8KJPPHyj4U+fJLn/wPJFlPk9y+GPnaS+JfnIDwsgBIGEP/lhZnhdPgXmST8D00J9SFYoNCQS2xTbZNstzHKAeTq54UmxF2+wY2B5/5ux/8jXnBUu2TrrrZqiozXVj/xzHrvunKslzzaLnyzZYlmvNNQ8nqAzNWbMe/ZnZZ2GJGs43nNAKz2PIeFwiJ4z9wxK1UZbwITfS2BP76LUmp4BrTSAahyf5n/nnyrJ2/Ui0EcizH9a3cwx/dtHvThwCTR4OZPrexgWqoA4X2CfrhL+32TTsIF1f3JNs64eN3Hp+h9GXCQcytCiJuKAX9ntsrXyObcSu+7ohD4h4WMh93R5ekbPKK1p6Ixfc3/h9Ii5wZtvcA8JYh98v0uUmDNtpdze0awu7jtZHIvg9k8th/SWGH+AxD3GlWuI+q2yvQ77Hz/XhoUV0Pzw0i/7/Ip9rKyIi3UOnbN2Xokf8KVOc1P5A6WSZP1WCHIoMMZ95FIEiAY9bJoxzQ/PUvTe64fir7nZ/rCzPi2JK1tpV+A8Y9068yA0Jctg2y3McHFMfP0DIBQkpAiAr2mbHwPYopsV0gqC4IDAfcdfNEExy3ZgeTmTYNSMQsvNlGyxLUMQ1j+vg2oIuio/YZ0HFawtGyZ00zKPhFTBkvKXElAXRFoyGWWKI/VsOANfaAtTotabYG4lAEr4kcKM4R74jLGvXD1YMza6rbe/s36eaXrf5mVigGfe95ZqDBwjpckb5ntjnGf7eZupTTLq3BfNmuiFBHQ9Ioi9y5qNaynnr3a9/8K518jk2vv+Wy8hxWmkGShnwYKq1908rmZIpt5g6nmG2TjYBVvjaWo6o9ZFowTZVICwX1HJPw/e5tpbv8RserHHtKdXB50D3EHx2FpCafK6tiIh0D50uSCWYihY9IgFvwcrBPz3XDcNIwPNnS7ARfpp70gUTXaDF/Ki4YlEkdhgn0CHICeOY9jkyt6JJmYq2sT0CDnLWevdtfQIw7rqFkQiK4lpxzbh2FpiFWZPkXPu4IGrPQ04I3q22ZWWqgQLLMcmXPWEn0WMJOWNFEy2HBa0pRoi474j58rMPg3cpHJvl1GYqdstxc/x8n+K+t1xz+97OnV4dTF2ttcX5pGXJZHJIeXn56gqCXQDfJ/Bb4P6X6VVo+R4bD3Wo58jvzoI2fls8mKKaQ/QeUays70D6SAR13UGuKPcV7hWWe0qH/9h6xM5uWAy4zgSllADh2nOsPLzlM+GzEZHi0qtPP/eQfvCWw4IprcN22B7bFWmtThekxgVTVr+FBD3v44qJ2ZNaa2AGlvsURTAaLm5lbBoBX5xw0dJsWKCWroU4ghRy1jIFl9mKu25hcUXD7FoN2Xp47DXlWtt1DdcxMnGB3drrbxi8a72q/VO5KtEiv9SlIjEX/jzyKUZouOHGsc6/ybWhbiq5B5ZrYzm1mT67Dxe+6YaZHiBYB9rvvz3fDcNaU5xPslNbW7uwurp6RTDaJdj3mQ7Nuf9lepl0v4G2ls+xGX5D/O4okUDjQjzgs4c8rekI3eqzRnMBM7F1snlYxDEazoFrwL64l8yf+ZKbTsNtoDVLEAzS4T9oqK2t5Xv8D9z4G3fsBKV0gcPnQEkVPpPog13kc21FpO3w0J4Sbzzoawtsh+3FZQaI5KpTFveN+uCdN9yQP9S4ImK84oqFgpwuinhSN5SiSfQ5Zw3rRFlrsOkCgXyDyd59i/OJ07tBYEex1bhryqsjExe0FIzwZ2u5vwSQ4c8jn2KELSH30xLVHAPfGb47Vi8uUy4q7PuUzRPM1uY8ixi7f1mJgyi+tzQoF354Y+uEi+mH5VO8fMniL4J3q+VzbLyPK6bPAz6re79syVdumA+OyR7GhfdrOCbL3TSsw4MyxK0Du5Y8BAyzB4o8FCVHlSDQ7mWWazpn6vPu/47jao/EYD7HT1Bt1+GYs65odlxx98N8rq2IiHQPXSJItW5b+LOLKxYWfoVzn6z1WQIXAjH+DMnVoqiZ1XHqzixhRyAWdy3Dr9a2npkPEjgk4AiUrTifJW7JiQlrjyKOJBx5Ykin3qxnOQokHvlO0RBTXMJMOo+KiorBVVVVvYLRLmGnvVIlALjnxRWDpcEvGpR77M7fB1Myr0NwEZfjZvcE7qtWwsDwMClunXyO7dbfjHe/t7ggxx5g9mllnVmK1iO8XxNuCT3MSlrQjkH0PsC5cY6wczZ0I4Wn/3KTu29tG+SewnJNad0clrPaHnI9/hXLVrduv3xp84cC6RqSy+faiohI19clglQLPKn7ElcsLPyyIqj86dIgDYkAAgwCDYomEXTQwI+1XBhGUVFEE1ytla7rGhJd4SKkhWZP9Mnpi7uW4RcBY0ewesDkLMCK+pKLEtaaYoQt4dxZj2Jt1IujwSOOgUQ4faumY9+nbHJJ26q+iOQmkUgsWLRoUdOe3js57oE8rAGtc1vOJIEjxdYt+Dhs3AVuCNaxFqdZh/sS67DuxHOaF+MEvwv73dHlFdtnHRrUoeSC5dSF5XNsdDgPjoNts7wdG62aY+d9D3PDKHJgWbYl1L/nIRQBNyUl7Fw4JupexqGkBQ9OuQ/wwMquGfvk3LiWnKv9JxlyIO3+gXB1EJtnJVisjn97yPX4OTbLFeXztuUZUkrJPruofK6tiIh0fV0iSA3Xn0kX0PHHx5+lzachGv5k+XMkwIgGWXGBozVKQ9HRuBwy9pELCzysAYwo+p+jCGlc/dio9sixsyAqXVFpkGDhvNtj/9mweqcUN+Q4+EwtByDMPt9cihFmwvKWAAsjd5W6xPQnCcvlj7PR4C3cMN33CVaM0rqfEGkLPIizoJOcSSvyzm+dQIP6nNHimtQ1CneNxDqsS+kTK0UQRTBpgQ7bZx0CD4Ib+41E5Xps1HW05dk2y9uxgYdG0YdWFghb8f+W8Lsed9kt7jzD58IxEYjHnT/r0NI381nHrhn75Fg5Zs41TjiH1BpTMuE2EXJtByEX+Rz/6b+7rTHAtuUZco/jc2MdWA438rm2IiLS9XWJIDX8xD6uOxSKJtGVCn+W1uT98qAo6zL/zzaKgOHhW5u3RGj74Q86rh/KuHUy2WGPVKM4PGGOBtfh4lSWELGg0Yp6hbVHsSj2a0/t4+p8EaCRYIl27VNIJHBopIPETbqivsinGGEmFGcjIZWuexirz9un75puGMdyHvg+xRWF4/pyXnwG7ZkYla6H0iG8MiHopAQJQZwtTyBx5QOvNAvqjK1DS622PKVP0nUTwnec7bGc7YMGdQhuKAHDeFwDYLkeW9zyvL/i/ldiWyZn/+Flsymtwv2f0hLRc+H8KdHBeLTaA+swn+VsHfbLsXLM6dAyui3PPS7sh8f90k3nM4jOwy77He7mp6uCYdsNS7dOrsfP5801D19brtf1T7/hPjf+85gW7bIon2srUgj2QDrbB9hSvKJpNfts49KEiC7Pciwfl+aT9pEIhu2qsrIyOf6Gp4Ox/JDLRRDBn1VckUy+PFYEiUCSLkVokIgnthT5YjrBDK0MgkQJjdyA6RQHs+XpPzXcIBDFgE14P6xHYoJcVwJUAgoTXicTGmwicCIQocsZWr/94tOPmhRFtvPlh0Ed2ui+X3rqAffUmW0wj65PrAhWS9eNYlgUswqvE0agRHAPch8s2KPRDCuKRWIp3HLj8TunEhNx14AfOMEdnxEJEGPHyVNzGjshQULCJRvhYyToIyEbJ3ytycUhcRy+fiBhZLk06Y7VUBzNcncocrjxZlu66eSA234uvv3vjecRd134PtE6MMLfw/D1JcEXTmi39Jlluv65mHjaPl5NTU1B7hG58O8nU5LJZHVtbe0lwaR2w73LN8bfV6o8eQG1xX2zUOw7me4+I9JRivU+lq1C3u9MZ7r3tCeqD4SLnFs6Le7BlxQv0s5k5FC1KpyWS5fGYzptHdBNZTiN1VLaS9qO3be7RE4qCCzOvf4hFzDwJbIiQ1Y0iQCLFgcNgQOJfxBohJenbivBihUzCj9lYT/jr7rb3axYj3VYlwDVijLlIly0LVw8inGmhxN8PDXnBhndN+85l3Rd47QGN2O2zT4JvNgnL27cTCNRGte1QK5oLITtcR3Z/vQpTwRzWhbOZSTQSyd8rQmIw9cvrhhhS/g+cXPjgQbfG7s2XCe2x/expUCb/XHDY/nw99CubzRAlYJbWFpa2qW6oBERkcwsQOW/mXQOaUhLpxHESOdBF4nhhw0mXR+xlKgLZ1QZlmN59QFbOJ0mJ5WbwptzXnW5Xy09wbBlQXFLuipJFyyQozp3WnVj3UGCJQtUqONIX6Fx++TJDPVa6UYkvA9yBJFrbkL4OFo65nT7JkeRaaPGjG1ct6XrFrdOHPb5zryZjX2nUvSY4DCuuFmma8B5EoCyfjT4snmIm59JtucB9kM9X5bHoM22ii1CmOlYw3iIQaf79h1Kt72Wvhv2fQPboC5a3PVt6Vzz/Q5GKSe1YyknVaT1lJOau+6ek0p65+f7pdqBoGi7/c9a4ErAGq2PLcWLdDAP/9OViotSjmnHs/t2pwlSRaSwFKR2LAWpIq2nIDV33T3NZkENwtVmeJBMaadsg510eLBNl03kyEVLb/FwnLZT4uYRPJMrmOs82HaRqToV5x7ehh1rLlWwjO1zw02/4x642zEi2+CP4zHp1onuJ3wOlolAaTerTmbzotfMxul2i1J9VGWjGpdt166Fjcex4033OSB6vLD1Mm27O1GQKiIZKUjtWJ3pvmm5+9mUdBEpJAWpuVOazfNO32dLV7yXakBWMsraoYi2w5EtGqC0NlIM1XpoI8Me7hGsECATUNGYWBjrE2wh2uYE92CKIlPlydpeAdMfuuWKZsVXKcZ89Bm/bVbqizYtCMJpmf32y89s0tYK08lBzjZYtbZGyJGkRB/vDed9yCm/jr2OBHFP3XuTqzoVRS423WOFAznbD59VuH0Yjhc8QA2zhwx2raPjUZajmimHlWN4cvIfmny26a5x9LpE14s7x+7G7ttdpk6qiEhbq6ioOG7UqFFqVrQFFIcnkaUAVUS6Ausii94LCF5oeJEAleBx+zH7u3m5CAeYtI0RrudKwGLVdLiHWvsc5OyFzZ/5UvCuaQ4j3qhJNRg5Ytd93RBs07Vx8tWXbl/skxfBE0ErucLR7WDJ4i9cA6Gf+cvYsbIOAdqEE/ZqdlwtoY4n50gwGD5vroedt2Hb7IMAlWttx8w6YPrNaXqUuOe6XzceM8uP9K8FLZfbula/mGlxyC22c4Vds5ZaFid4tQDc1uFhgV1jHhTEsetCezLRc4zr8aE7UpAqIpJGIpG4Y+XKlVsFoyIi0g3w0I0giWCK3DUCh1SO23155XDRawRoUJHum9g+uZLkpoHcNGP9JNMOSNjcaasbmbd2V8y0Zx92Q+vPn2DPAif2yb7YJy96QLBcxuh2YDmR4WO98E9PNV6PXAMoglsCMHIr7byt4VKOkZxTQyu87IMgj5xkO+bwtYrmjBqCQjtmlieXlgeo1ivF+oOGuG2la2OEHGLmsxxYj/FMOccE2RwPDxbC15ncbDtHHhSEz9GwHsuEr4udY1wucnekIFVEREREJEAOY7gffYIQgol8i2Bacdu11tvIDQ05pwRk5NxaDuXWI3Z2wzdnT3NDUB/SgjdYX+yweeQAWkBFX+7kKPKKqxtJLiPmz3jRDaPoSSK8Huc97rJb3HsLiLPFcRGAhREoWs4hjYaaQd/e2p3j2GNTOdlhlsuMuBxgAu909UDbS/Wjk90wer0QPscXHr/XDcMI+qMBc0vn2N0oSBURERER8dGKL7mnBJYEeSAIpMivITDMhQWXl/10X1f0N5yzRq4bOWkWANNjA14L5ZzS+A/oS50gJpyravNsHyBYJUeRV5ze/foH7+KFu/YzbJOAk2uRSwAVPq6wLStHu+GMF55yQxC0cT3igk2C+PWCorhxol3JtDeOxx4+pMudrdz5+25IH61R2wY55lHt0Z1kZ6UgVURERES6PYpvWj/l9JdPkGfFNimCSQCL688/0TUylG2wRs4g2ySooS7mOYfu6J172Gi3vWjAa8FguF7qf96a54Z0TUdxYAJFW8/qqm4xbAc3jOIYCYw5N+pP0igURVDTYd/pcoytKGwuyB2Ns/b6GwbvmiOIpzVljpmHAxNO3Nt1CxRuyCmqpcC7rVlLxVyvdHr3TfWpGldEudDH2xkpSBURSe/OsrKyps0oiohIl0NAaHVDf3bxjY25eeSSWY4qASyt/BJsEnTSZUg22NYV97/iAl6rD8o22N5FP9mjSS4tovVSyTmleCjB46ZBjqHloNKgE6KtyBLkEQiTK0xgTP1PgiVyI9lWOvkEoplkCkaj+Ay4FgTxNDrEMfNwgAaR0uXIdrS2vl6ymoJUEZE0ampqjp8xY8brwaiIiHRR5IyRQ4lowEeOqgWXFhRSjzSXOqosS8BL3dY/PjnfdZkSbtE13AqsFROlXiq5igS0Q7ZONYpEV18gd9Vycu3YDOsQ5LEe+2Bf5AzTdQ0NEo3a/YfBks0tiDTY1FofvPNG8K5lNMrEtSB3kq5+aEiIa3X902806VqnGNAXKtI15BSWKbdV0lOQKiIiIiISsGK2YSdffGOTHEgLFrMVLtZLwEogTINClktLX9OGYr2gXuo782a591aH07r6InfVWue1hpCMNdRDgMo+2Fe2jQoRqMe1RgsLyLLNQYYVVY6yY7e6pFxza9X27N/f71rn5VxzeRBQSOHrme56WYCeKeda0lOQKiIiIiLdWrhl1VenPO6GYV9+9qErdmpu/c34rBpQYhnqr1KPNVsEZgQ21MGcGTQsZN3LgJxTckmn//MxN/7tbUe6obGGeux8wggGrVXadKZPeSJ4txr1WsG+cwkcaQ04GvSHj2HYTru7odXxRO++zetr2v6LiRVB/uuk37lhGOdoXQ+F+6+V7ClIFRFJo7Ky8o6RI0eqn1QRkW6AIrygDqcFRQQbFMW98vSDXS5juE4p01pqPIkcNwJOlqc+aziwZbvUS8V2OzZt7dWK5FK8mOKi4f46tx65ixsSxBKIRnNJLWeVnEnqphreX3PmEe5YMqEuKI0WWXDJteCa4IfH/dINs8U1Y592nch1tGPgWlrOcPghAcV+LXeSIcdi+8/Xp+8vaBYsZ5JNMWVrEIvPiLq0dsx8xnaOfPbpWv+VzBSkioikd1xdXd3A4L2IiHRhdAVj9UQJisgBpVVZWsMl2KJoLnVKrcVflK/b8l/ECb+6tjGYoaEktsvLWtlle9FAM1yc2BpSMuF5O+x5UPBute3H7O+CI46Zuqm2P97T/6sdP4FbHK4BgSrnznoWILKeBZXZIreRHGgacGJbNIpEcM3xUYQ6jP5GQXDNcrY8x8K1t5zLLz79yA2zwefDtSdg5Hxo4TgTK35sn3+mhxB8ZjSyxfbDx8xnbOd41rX3BUtLrkqDYbsaOHDgJaN/8ONgTEQ6g6lP/tn7+OOPJwSjRcO/n5CCePeTTz5Z3VFcO+He5Q/u8veV+bFzO9B9U6T1ivU+lq1C3u9Md7/3VHx3T2+bUd/zBqyzgdezVx/XeivB0UkX/MEP/sa6ZQZttpVb5jsVo92rJQPWXt/bdf8fe+tvtKm3Ru8+3lrrb9Rku3HbWGeDQd7bc2e45UZ8bx+3T7NGr77ee2/Nc/N23udQb4NNNgvmpPTs1dvbfrexbn/19XVuOQKm/Y87wzvklF+7osMfvfumO78tthvlB1nlbr1Hb7/aDS++7Wlvw00390pKS92xZjrOdN6cM92bN/0F77v7HuYd9cvL/PPu6/Znx3H0Gb91xxlm17WsZy9XpNiu0Y/P/J03eq+D/fPu43JD+/Zfyw+WU13ufPHph96K5Uu9rYbv1OQaGc5tu9G7u4Cdc+nTr783yg/iCdY/++g9F5QO3f57wdKee89xlZSUuv1/a4tt3fX9aGHqevH94PM0zLPP1q41DxX2OfKU2HNs6XjT7ac7sft2IhhvV5WVlcnxNzwdjIlIZzDxtH1o3bYg94hc+PeTKclksrq2tpYAsl1x7/KN8fdVsASi0X1TpPWK9T6WrULe74zuPd0XuYCgFeDWooguOaCHjrvQ5VCLZMvu2yruKyIiIiIiIkVDOakiEks5qZ5XUVFxXM+ePZ+ePn166x8r54j7ZvBWRFpBOam5UZqt+1JOqhQDS38qSBWRWApSRTLTd1Ham4JUKSQFqVIMVNxXREREREQcuoSxLnZaa50NNnbbYiiSDwWpIiIiIiLdHN3r8GoL9A3KttRHqOSrYEX5KD4SvBWRTqK7F/f197WgpKTkyJkzZ74STBJp1BFFMaV76YjvmNJrItLROnNbAlIk/D+zO3gFoyLtjkRbRUVFQRJsJNb8fTXtRV0kUMjvonRP+o5JZ6PvrLQVFfcVERERERGRoqEgVURERERERIqGglQREREREREpGgpSRUTSSCaTQ8rLy9VokoiIiEgBKUgVEUmjtrZ2YXV19YpgVEREREQKQEGqiIiIiIiIFA0FqSIiaVRUVAyuqqrqFYyKiIiISAEoSBURSSORSCxYtGjR6GBURERERApAQaqIiIiIiIgUDQWpIiIiIiIiUjQUpIqIiIiIiEjRUJAqIpLewtLSUnVBIyIiIlJAClJFRNKoqakZMnPmzFeCUREREREpAAWpIiIiIiIiUjQUpIqIiIiIiEjRUJAqIpJGRUXFcaNGjRoYjIqIiIhIAShIFRFJI5FI3LFy5cqtglERERERKQAFqSIiIiIiIlI0FKSKiIiIiIhI0VCQKiIiIiIiIkVDQaqISHp3lpWVfRy8FxEREZECUJAqIpJGTU3N8TNmzHg9GBURERGRAlCQKiIiIiIiIkVDQaqIiIiIiIgUDQWpIiJpVFZW3jFy5Ej1kyoiIiJSQApSRUTSO66urm5g8F5ERERECkBBqoiIiIiIiBQNBakiIiIiIiJSNBSkioiIiIiISNFQkCoikkYymTy+Z8+e6idVREREpIAUpIqIpFFbW3vn9OnTPw5GRURERKQAFKSKiIiIiEhOqqqqyioqKgaHX8lkslcikRgQnrbddtsNClYRyZqCVBERkRYoMSYi0lR1dXWdfw982H8tCL1G+7N+GZ5WWlp6WWoNkewpSBURSaOysnLBiBEj+MOVbi6HxNhZqTVERLq+ZDI5IXgby5/PvfO3wahI1hSkSk4qKiou9xPud9jLv/nswis8jWWCxUU6u8H19fW9gvfSzWWRGFvRo0ePK4NREZEur7a29hF/UJMaa84PUP88a9ast4JRkawpSJVcfeK/jrOXf/PZnFd4mv9iGRGRLiWLxNgkNbQlIt1Nugd4/nTlokreFKRKTsrLyyf5N520iTDmsUwwKiLSpWRIjCkXVUS6pXQP8JSLKq2hIFVyUl1dvcIfZEqIXRksIyLS5WRIjCkXVUS6regDPH9cuajSKgpSJWfpclOZplxU6Ur87/QQ/zv9SjAq4sQkxpSLKiLdWvQBnnJRpbUUpErOMuSmKhdVuhT/T3ehvtMSFZMYUy6qiHR79gDPHyoXVVpNQarkJZqbynvloopIdxFKjCkXVUTEZw/wlIsqbSERDEVyVlFRQf+A1/HeT6id4d+cfu9miLSjysrKKf73rdr/vl0STGo3/nd8cHl5+cfKTZU4/ndxlj94vqam5ozUFJG2Vcj7nTRVVVXVa9GiRQNLS0sH1tXVreund9b1Jw/2h+v4nwnjA1NLSph/bdbxr80y/+3y1BSJeN9/fe5fp//yvqSkhAyfzxsaGj73f+cLWUBSFKRK3oIb+ALe+wn5IUrISyEUMtHm78vfVXKMv6/ng0lFgeMK3opIoKampsulaRSkFtZ22203yA9K9/Gv+d5+8LCfP+zD9ERJSX3vvv2/6Vu+Tl2/8nVL+/Zfu1ffAeuUupVEcvD1l5+uWrb4i1VfLfqsbvnXi0uXL1nc24/sXclW/3u2KNnQ8IT/vXumrKzs6RkzZnzuVuqmFKRKq5CbytD/A1UuqhREdw9SOabxNzwdjIkIJp62j4JUycuIESNGNzQ0/KCktOyHDfV1w3r26rNiyLDR3mbb7thr4OCtvN79+ns91ugdLC3S9r5ZvsRb9tUi76MF8713al9e8e7rM0rqVn5TWlbWY8aqVSsf9+8Bj8yePfu1YPFuoyA3dBJVwVsR6USKMdGnIFVBqkiUglTJVUVFxW6lpT0ua0g2jB44+Dsrvz3su32GbLuDt85Gg4MlRDpGsqHe++Q/b3oL577qvVX70tL/frCgb0lJyeP19fUX+feCZl2gdVUFC1KVqBLpXIo10acgVfdTkSgFqZItC06TfnC63a4/qN9xn6PW6NN/rWCuSPH57P23vf/32F0rFs6d1qs7Batq3VdEJL2FpaWlqmstItLJEZyOGLH9v0pKSv+x7ff2HXXS7+4pG3PYaQpQpeitN+jb3gHjLu111K9u8L619fbfTyQSs0aMGPHYsGHDtg0W6ZIUpIqIpFFTUzNk5syZrwSjIiLSyVRVVZX5AeoliUTJc9t8d28Fp9JphYPVTbYcvldJSenM4cOHnxLM7nIUpIqIiIhIlzNq1KiBX3+99B9r9O7zqwNPu6xk9yN/ruBUOj2C1QNP/+0a3z/mzB6JsrI/+IHqA0OHDu0XzO4yFKSKiIiISJdSWVm5Z119/Wvrb/Lt0cdc8Keemw7dPpgj0jUMHf1976hz/thjwHob7t+rV5+5FRUVlcGsLqFLB6lP3nODd/zOA92wmFxz5pHuuN6cPTWYIl0ZnzOfN5+7dC7+Df84nsQHoyIi0gn4AerZnpd4ZsTuP1rrsLOv7dVvrXWDOSJdC61RH3XeDb2+M6pqw0SiZJr/3T8kmNXpKSdVRCSNRCJxx8qVK7cKRkVEpMhVVFSc7t+8rxz7swtLdjnoxJJESWkwR6Rroh/fvY/9nx67/uhnPfyUy/3+b+DAYFanpiBVpJ1tMWxH746XPvbOuvYvwRQRERFpa+QiJRIlE/c9/rySb1d8N5gq0j0M3/0gb+cDji8pLS37y7Bhw3YJJndaClJFREREpFMLEuX37fqjn5V8Z2RVaqJIN7P9Xod5w3bdv2dZjx5Pjxw5slOXBOuUQeqSxV+6eqbnHjba1fXjNeHEvb2pzz4SLNEc9QJvuujknJc/fZ8t3fIM7776PO+zD98Nlmguuo9s1gnjeGzd996aG0xNz+rcsl9enJOtz3HEbSO8zv/dfLl7z3HyPoxjCW+Pa826XPs40c/Ezp3pVgc3zKaF57Nu+DPhurGN8OfM+3TXlPlsi21yPvbZ2bGb8HFG55nwMT//yN2Ny4fPC7Nffq7xOkXnGa4189lmmE1j+bhrl+57Y9cl7vzi9iMiItKV0V9kaVnZPyp3OzBBbpJId7brj35aMmTbHddoSHovduZ2NTpdkJoKao7wHrzxMu/TDxZ62+44xhu8VYW38PVab9LFpzQLtjD9n495vzv1AG/utOfd8utvPLhx+bgAhUCJ5ac996jXt/9abh1MefhOb8IJe8UGf+F12H50nZYCVYIdjgenTJjkbbL5Nu59Nma//E+378+C68H+OY6LfrKH226cx+78vffE3RPdteMcl369OJiTCtA4Fq4R89km15przrWPBmFxn8l6/jFw7qnlvwiWbO7mCeO816ZOcess/Wr1djnucw7d0W0DzLfjyHRN2Rf75Nw4Bo7fjp3PmnPjfZ81BzSZF/e9AcHgXf97jnvvjtG/Tuyf42Z71519tLfMnxaex/5zYdeOYwpvh3OMXmu+e0wPXxewPscqbe7OsrKyj4P3IiJSZOh6o0ePns99u+K7ZVWHnqISgtLtUQ/7Byf9umyDb22xZn3S+zt9BQezOpVO92MmOLDg6Y9Pznf1/C6+7Rnv/Jv8gNJP5BOcRINIlh9z0HHeFfe/4pa/8oFXvEPHXejmPTn5D25oWDccLLIs61z/9BtuHQKI688/sUnwQE5Z3Drsj/2yzl8n/c7Nj8M+b/HPC6y/45651Xe2YDN8fuwXbDca6IDAkH1x7Vj+2LOvcNMJ1pjHtbz0rufcfLbJtWYfXEs+g7AXnri38TO56sGpbnnWY/tM55XOgnkz3X7sGtu5h6+HXU9ebJ8gnGs6fcoTbpkw9kWwbsfO6yf/c5WbRyBn+7N5bB8W9EUxPXwMrAuuEduLzuO6cQxxDzLisB2Ol+8vxxM9x1enPB4smfLAjb9x06PfZ8bTnYPkr6am5vgZM2a8HoyKiEiR6dGjx6979e0/YJ/jzu2UCXGR9kCguv/JF/csLSnd6quvvjopmNypdKoglZwzC6DOuvY+r9+A1R0y0zgNCXUS9x8ufDOYmsI0grDw8vsdfZrbDgn+cEAx5ZHJbkhAGg0WWcdy8+ZOrw6met7Lf3/YDaPrsL+Df3que79syVduGMW+rzz9YHccBDy5BqiIux6cr+XKhY/VEFBG90UwS8CL8Vfd3SQ3l22zD/bFZ2DXjHUs0B932S3eehtt6t6D7dvDgHT4zKK5xmzbckGjx8j2qw44xr1/943Zbhh1zNlXNtnmbgceG7zzvENO+XWTeWw/7ntgOL7wMbCu5V7usMcBzeZts8Nu7v3br81ww2xwvHx/Tfgc5898yQ3BwxCufdz32T5vERGR7mL48OGbJxIlZ4054vQ1Sst6BFNFBH36r+XttP9PenglpVdUVFSUB5M7jU4VpM6dlgq2CATCCXTzo5N/5XKVooGNBQ5RQ4aOcMMVy5a4IaY9mwo4R40Z64ZRI3fd1w1nvvCUG8LW2W7H5vvhONO17Lp86ZLGAJXcvuhxZ2uHPQ+KvR5xx2qGbD08eLfaR+/+2w0JDsNBk2Ef7Atzpj7vhqzD8bNOOEA16a6jGfTtrYN3qxHsWU5nnC22S3XInS7w32jwFsG75jbebMvg3Wpx3wPzrc2HBu+a23TLYcG71WzasqVfu2E2Nhva/LOIO8c357zqhgTHcXbZ7/DgnYiISDeQSNy4yXeGNaglX5F4lbv90BuwzsBeiUTJlcGkTqNTBamW8I8LDjJZd8NNgneZkStIwAXq91F/MfqqfvweNz8cPNg64Ry6bFCk1db97ycfuGE+0gVSFpDFBXNx18SCIHLq0rH1LBfT1tk2zYOAuMA1bO31NwzepUcOJ7mI1AGlQaiJ56zOGY2T6+eQSVxQ29ZaukZm/owX3XCLYTu4YVQ211JyU1lZeUdnbx1PRKQrcn1BJr0xexw1fo1gkohEUOz3+z/+Jb+Rk4YPH57KAekkVME8xHISQbHKuFem+pW5IkC1XLG4urTZautAKpuHANHAt3e//sG7tmEt2NJaLQ1A0TAUdUBpEKq76923X/BOCuC4urq6TtsynohIV0RDMKWlZX+ku40B620UTBWROBt9e1tvy+13rSsp65Gq09dJKEgNKV93dVqUIrqZXnHFd3NFfcdTL73ZDUGjOPn44tOPgndtI11dz7A+kaB0eZqit/kgR9tasCVXd+yx411xaBoXogGn/Y75RbBk90QxcRERke5q8eLFuyWTyYGj9j5cjSWJZGHH/Y7pWb9q5Xepxx1MKnqdKkjt03dNN0wXRFEklL4j03Un0pJwsctccjVpeAfp1qGYMH1pRufvtFeqfieNK1mDROF+QrP1/tvzg3dNffDOG26YbXFSqwdJw1DpfP7Re25oua2DNkuVhHxtWqqOalRLXe/EoUVbcplpCIg6xtQ1pvEj6snG1b3tLgYH1/zN2dPcMKqtH1aIZIv7Vr4lQYoRfSNbFQ+qGMS1kN5RuM52bG2BezTnK9KZ+AHq4ZsOHbmqxxq9gykikslaGwzitbyhoSG3fhI7UKcKUrfZocoN6e80LtFAK7sEN+tssHEwJXdW/NZa+Y2iXiSBcLh/1WhjQmHWIjHdjKSrK0ngRauzmHz1uTkniNIVgZ0RNJi0ZeVoN2zJhpt+xw0p0kzAH8VxRRuJ2mzoCBdgu65fYgLSuG5iWmLHvfXIXdwwyupmdjfDdtrdDdN93i8+eX/wTqRwKJZPF1xxDY91RpwPfSNbFQ9+b8X0cIzrbMfWWgS8lFqxe65IZ0BR35KyskO33H43RagiOdhq1O69y3r0PCoYLXqdKkglR9C6VaGvznAwx5N8iocSMFkwm489DznBDdlW9Oky+6BeJPu3XEdYjijzZr+c6kcTHN+NF/7MvbcivemQU0gLuWz7oT/l1gAXOZ8krMLXg3ESMRSXzbbVYBJiFK0FjROFc0bY9jVnHtGYw2kBN+tY8VvONRyousaOIv3QZsNyDKsfndzknHhv59UdkZPMtY/7vPmudtfr0p6SyeTxPXv2VD+pGeRTWqKYWX/DZ1x9T2P1jq6KgJd7ukhnQlFfryHZVy36di+WBozLRJHsbLn9bl593aqtO0uR305XJ/Xki290wRwJ8vMOH+2KPFGUlif5oM/JbIu3xiEQoL9S8DT93MNS+2Bo+yCQC3fREl7nurOPdsfDOhwfOYwc795HpNbN5Kjxl7ohiaRcfoRsn3XsenCsFrCf/rvbgqWyQ9FaexBAg0V2Lj/fb+vGc+EzCNt17FFuOvPPOXTHxs+Exo7o7zRXu+5/lDt2gjH2y/bsGDgvC/iXLP7CDbuTw8Zd4K5N9PPmu8pnIG2rtrb2zunTp3fdKEXSGrbTHsE7ESkuJUduus32DSrq272QOUXaR/JHI2OdqchvpwtSybk769r7vEPHXej17b+WC1YJjiimS8M6+fY1GsY22BbbXPrVl24fBEy2DwK5qPA6HA/rcHwcJ8ebTXExgl0LwO6deJEbZmPU7j90T/0JCNkvx8x2Lr7973l1x0KjUATdFniyTd6nO5fwZ0LOLctTvJlgnum54iHDudc/1Fj0mu0tmDfTndOldz3nHXv2FRmLGHdlfJ58rvY94dqAhqXsIYdIIVjdSH6b4J7FuJXAoG0AxkH1CN7HPQWnhArTmW/LpKubz3xrc4Dt2HrUG023DljWjse2ET2O8PHClg2XKEHcttLdh2y+5QC0tHxU+BwZZrNe9Pi4NpS0CJe8AMvY/wyfoR1bGOuwLtuw7bFM9NqJFFKitORHW46s6hmMikgOKPJb2nONw4LRopYIhu2qsrIyOf6Gp4MxaSsk/ChiTHC439GnBVOLC4kqclcJXmkESdoPiXRy+wlgCeRba+Jp+3g1NTUFuUfkwr+fTEkmk9W1tbWXBJO6lWK5nxKoUFoiiod1PHAjoOEhCg+r6GLL8ECF6g0Ef9eff2Lahtp4MBZ9KEaXVJT04EFW3BN11rn4tmeCsRS7T8YJ/1bseKPsfECgmO5JPg/2og9J7Xgp9cFDNcPDtpYeIMbti4dztF9AyQmEiyITUJLTEHcOYF0e/tl+486XY7WW67mf0EZCuuLAbXWfaSvFer9qre5+v4saOnRov549e379419P8tbZKPeSWtJ52T0rfE+W3C2YM9V74pZLv5o5c0aq1dci1ulyUqX40JAUT9rjvDNvlhuqKGrrERRQtDfcaFfYGzWphwDf2nyoG0rr+QnEBSNGjMiu5bFuhkQCQRKBDUg4MB5NPBCgEpgyj+Bs+zH7u+m3X36mC1AJdq56cKqbz4tgz0pK0NJ3FLl+BG88nKNLqug64RxVAmECVObZ8YWXZzuWK0hwxjxjy9r58Ltjedaz+qrsn3NjGg+I4nIYSVRRssT2z7ClAJXcy+i+uEY00vfXSb8NlmrqmfsmuX1xr+U62/GzP6YRbD5x9+o2Ajhf5oHPkGUtQOXhogWonJ9dZ4Zcd3B80Vxmkfa2xhpruL4C+w5Y241L7riX8QCN+xUlI3gf1zMG91ICQ+bzsvRHtFSGoU2W6PKZSoAwnfksZ+uQlozeRxlnnj1U4+Eo43H3W2kZv52Ghvr+NEAWTCpaClKl1SjWTAuY0eJ2JGBI6GDErvu6oeSPfnxJ1NMYVTRxyLUn0YjWNBwmzQyur6/vFbyXPBCEknMKgjNyRvn+ElBSwoLcuHA7AuRGsg7+89Y8NwwjcLLSI5bLGl7HHtbAWlyncbdw8BxefvbL/3TDTEiUWW4suZFWX5X9c260hYB01TSYb/uPBvFxnro3Ve9//FV3N+6La8S12maHVMvqUfb7H3fZLU2CYPZ30EmpnNdwbm4mc6dVu+tsn51dZ4Zcd3vo+OHCN91QpFAaGhoGJUpK63v1bdpXu+TusTt/7x4i8nsmHRcuNUHwyIM3e/DFgyzSH9wHaUQzGqgSvNImC8uzLC+qnnFfogXxaKDKf4D1h89yLM//AWlJgtBwerJXn35uPg/tYMfDdMldnzVT9/NFixYNcm+KmIJUabWjz0g92eeGxhMxnqTRcBINL1lCJ1oMTnJHIpWik1zTcKNWXHNr1IsconCCX6SjxeXsE0SRK5euYbcthu3ghumewFsXWGFx61h3ZNP/+VizbdGYHbmTcW0MRM2dXu2G1JOPywW1+xtBYNwxbzR4i+Bdy0i8kRgkwRYX0O68b3xVouuffsPljMb9/ukqDOmKVkcRmHJt9j3q1GBKU9sGgfJ/P/nADUUKaHDvfgNWBe+lFQgoSTNQRYLqWFZ8P1ySg1IZzKeUBfdsa3dl8jXnuWVhD/FseZbldcX9r7jlSbM8de9NwdKp5anqYelD7l0szzFQcsRKptjDeO65zB8S3Mdof4PxuHuxtKzfWusG77yiLy+vIFVajSf9JI7czShoaIqbGE+6uAEWU72lzo4ENdeUa8s15lpzzbn2fAZ6GCDFZuPNtgzeNUWuXDSRQfEtEkj/ePDWYEq8uMRJ777Nn6pvM6rKJXj4rVA3ngc7PPEn8cP+s32gY8HYsiVfufXjXgSVWPR588agc0lMvf3aDDdcf9AQN4zK1OpwNKjlPMmRyLVbM3BtwteHhCWfD+earq9mkQIY1H/tDZLBe2kFciTj0gzhkhzhexf3zGPOSjVcyT3AHsh99O6/3ZAgMrr82GN/4ZYP46EfD8xIx0TTh9zfrFvDKY9MdkNpe337r7XcHygnVdoPxa6oJ1QMjSaRODr10pvdEzGrC8WTLgVNbY9ryrW168w159pnU4xQpJhYnSfqQ1HHiGJeNArEw5e2QCIp3FI4wSpP/CmJYPWrsjF/xotuyHGxftwr21zKlixb+rUbWn/RuSCIpE6X1fHiPMmRsKLAuSAo5fpYHTO6AOPzactzFcnDxv3WXk8t+7aBIVsPD96t1lJJDu6pVuWAagHYcNPvuCH3R+4Z4dIkBK2kUcLB6MwXnnLDXfY73A2jrKTMtGcfdkNpe73XXMtLJBIKUkVEOqtkMjmkvLxczVK3A3I1rc4T3WcRSFLXlOJeFGtvKySSeIhD8VVKIbAfnuyTECPgijYWEqdPv1T9N4qmUWIh08sSbK2VayDIeRBEWi4nuRRcT86ZVy5IZNIPM9eHz4dtce5sj3NkXKQj+AnrFfUrv2kIRqUV1t1wk+Ddal9+lioJQgktHlDFvXjYB3uglsoxTd2zuWdYqRXuSVZkN8zubU//5abY7T9w42/c/HAdWWlb9XUrSd+sCEaLloJUEZE0amtrF1ZXVxf9jbyzIQeVhA5P6wkeqfNEIEmpEIp79Q6CwrZE0VVKIViJD1qtRbh7nHQ2DeVqkruQ6UWCrTUGbbaVG1K0OE60wRIQVNp5EERSt4vSFlxPznnt9Td087JF/TESiAT01ENjW+SEsD3OUaQDffD1l5+pTmo7ef+d192Q3z8PqOJecQ/QwlWRwP2de5KVWgkHqxbkMozbPi9pX8u++rIkkUi8H4wWLQWpIiJSUFbcq+qAY2LrhX7+0XvBu9YhGKaVyrin+dbicDYscKT4WVyQCIrZknMQ13BSLqyRIxJqcduiPleUFbsjgRgXRH7x6UfBu+xYMbs9DzkhNuj+9P0FwTuRwiJhvXTR50q7thNrbI57iVUpSveKVjWzqkg82CJgpfSFlVq58vSDG++dVn+fB2px2w2/pO0lG+q9b5YvXaOkpERBqohIZ1VRUTG4qqpKXdC0Mbo7gNX1DCOwzKcOZZz3357vthXuH9TQpx8swZQJubssR+5CXCNEBMIUs+WVbWNM6RAUkrjDXyf9rklQTNBq3XqFWc4zfchGg2gC9Lh1MrHP5805r7phGOeaa1FkkbZSX1///vKlX+me3E6s1AX3knxxDyNgpfQFLfzavdMaWLJG4T545w03lML6+svP3XDVqlUKUkVEOqtEIrFg0aJFo4NRyYA+QqONZqSz014HuSG5hdbiLi+rp5pN4JgNupmxligpckZOJ/sh0KJPPxz8s9VdKWRCdzlsi6DXGl2yY7ag+qQLWi46nI2Df3quuwYc92U/3dfth2OnX0ESe1HWijHzWN7Ok9xdittZ0JkOnwPr8IAA5HCD+mVsw/bPeXOubfX5iOTKiiguCRLa0rYoiWH3ErsfRFFvlHuBPehjOauDGkXAGm2pfGTQb761IhxFA3A01sa9R9rekkWfueGcOXMUpIrkigQRNyhuhGFM4xXFjZJEZ5jd5KLbEJG2ddi4C1yihvpFBDUfvftWMCc9EkIUBwuvx2uZnzCirih1KkHwlK54bTZIING6L0XXyP2jjhT7sUCLRpp44p8NGmAKb8uOmeNnGkXX2qq+Jsd94Z+earIvjp1gk2OOsvPknMLnOXfa865BE9sWLGEJjtdybVmHhkxAMT5rCIVA2fbfx/+8OE8Lxul/VqSQysvLXcJ62df53xckM+sChhIYpKXCSGtxX6ZhJauaQD/Q3Ae5r0aX537D8rBG5bYfs7+793OvYnvhezwlPyaek6qKEW4LIGz50iXBO8nHsq8WeaVlPVKRapFLBMN2VVlZmRx/w9PBmEhmBKkkikhUUb/BWIAarqfADZEWLaPLppsu2Zt42j5eTU1NQe4RufDvJ1OSyWR1bW3tJcGkdsO9yzfG39fzwaQOV4z3UxIZVpSrfN2BrsgriY0Vy5a4hAlBVDqWqOnVp1+TPvbi1rdl44JBO4bodkz4GNMtg0z7MHHnGyebbbWEnGn6Xg0fc6bt2nVDeL5tJ+54062T6Tzb4tzaUrHer1qrkPe7zmLEyFH/2eXAEzYZvnuqRIbkxtJYtNYdrVdqCB6thAj9qfYbsLYrAmwlOXhYFu6zmVxUHmSBh2Xkni5Z/IULXsFDyfADQe451FNlewSs9LEaXp590qBeGDmrPDSz5XlAmu4+LulVPzipYfa//vavmTOmp/r6KWIKUqXopAtS45BQUjDaPhSkKkgV6SwUpHYf/jW5bINvfeesI879Q+9gkuQgmyAVFON98cn7G3NCCQ532PMgb9+jTo19MBddHrQQTgNscQ+zeHBGS+KU+CBXFQSn+xx5amwJFx6a3TxhXOP2o4GvZOeWcw//ZvmSxaf798tbg0lFS0GqFB0FqcVBQarb14KSkpIjZ86cWTR9pep+KtKcgtTuo6KiojKRSMw68Td/9vqttW4wVURa8uHbr3kPXnt2Q2lp6QYzZswo+ordqpPaClbnkac7FHU4fZ8t3TRrVCOOrUNRB5ZjnArnjBueLlHUwubzopiDFa/KB+uyDdsex8o+4ho54Xw4/vD+OcZ0leiZb9chvF6mfcDO066bXZd07FgMyxOggidrtg1wvuHxsEKdn3R+fqJ3SDEFqCIi3Z0fsNeUlvX897xX/h5MEZFszHv57w1lPXo+3RkCVChIbQPXnHmEK4u/3saDXY6eNXRB4BOHcveuLP5XX7rlKYNPfSMQpNGCI3UBbL618khAli6QyoR1WJdtsC22CfbBvsJBFu9pHZLj5zxYluIXHCOtbhKUpcN1YD0a12A96hrYPgjwwsLnCZanvgPXJds+EgdvOcwdGyiG4o41TUV7U6jzExERkfZRt+qbya9Pn7IsGBWRFtA/6puzXqxftfKbTlPsUEFqK5GDR4BD2XgqeVPk9NK7nnNBE9PjclSZTkBL/1EsT0NAlO8n0Ln+/BNd8EOLi9c//YabT0uXVFJnmwRSmXIbo8hRZB1wjGyLbbJv9sG+6IvP3Hjhz1zwRuBGh8wsy3nZORGUxZ0T1+Ezfz1afrTrcNWDU11QzD5enfJ4sGTK7Zef2ew8GVLfwQLXlvzo5F95R42/1L2nEj3bYFomhTo/ERERaR8lJSX3ffnJe32+/KToe9EQKQr/eX2Wt3LFcvpHzT23q4MoSG0DVD4PV96mtbHxV93t3lc/OtkNow466ZxmLV7OnV7dmLtHJ8hhtKJmzYJPeSR+m3Fe/vvDbhg9RvZNX3xYtuQrN6SpcAJogrWzrr2vyfGFz+nJyc07xscxZ1/ZpHI8gbf1tzd/5ktuCIJs9kOAFz1Pxi13tK0V6vyk66ioqDhu1KhRzfs9EhGRDjNr1qy3EiUl/5hy3x+/CSaJSBrkolY/eNPKRKLkznnz5nWaPnwUpLaBUWPGBu9WI5ghGCLojMv53HDTzYN3q8184Sk33GW/w90warsdU61FT3s2FXhmw5a1dcMI0sjFJVcQ77/zuhuSuxkNoME5Wc5hXP3YzYYOD96ttsV227uhBcKYMzXVUCqtvsWp2j/VyX5bK9T5SdeRSCTuWLly5VbBqIiIFItkctx7/55d8nbt/wsmiEicmucf8xZ//vGKhoa6c4JJnYKC1FYiEI1rihsUQYX1PxcWtw4BLehQnYZ6oq8HbvyNm08QlS1bNpu+pObPeNEN19lgYzeMQ99X+OCdN9wwLN11iLL99O7X3w2jNt5sy+Bd2yrU+YmIiEj7Ijc1mWy4Zsp9139TX7cqmCoiYcu++tJ7+fG7Vvm/lXNra2sXBZM7BQWprWSBaFugKKoNqQMZ94qy1mmjr7icwGxlEyQuW/p18C5/lgtZaIU6PxEREWk/q1at+u2KpV8tnva0uqATifOvh26pr2+of71///5F3y9qlILUVvr0/QXBu9ajqClonIdiuJle7SkuFzGqT981g3f5e3POq8G7wirU+YmIiEj7oX5dQ0P9+OnP3Fe/+LMPg6kiAvpFfX36lFKvof5n1dXVdcHkTkNBaitRRDdd9yN0qYLydbNrdyVTUdN04gJYXtbAD8WRka5FYIoRWz+tW4/cxU377ycfuGEcC8pbUyTX9rM8TT3OLz79KHjXtgp1ftKl3FlWVta+T4VERCRvs2bNus9LlFQ/9MfzV1K0UUQ8j5avH5s0YWUiUfqnztrfu4LUNkCrvFEUt6U+KLmj2dZlHLnrvm741L03umEU26Qo700XnRxMaRldusAaKwqjz1CKENO1CnVWB22Wah+GbljiAm/2T1BO4Btu5TZX1ohTuv28+OT9wbu2Vajzk66jpqbm+BkzZqRa3BIRkaL0zfJlByxZ9Nmbj988YeWqb5YHU0W6Jx7WPHLDBStXrVj2r/79+40LJnc6ClLbwOSrz21SB5RcyYnnHOveH/yz89wwG9uP2b+xReC7rz6vSSAV3uamWw5zw2zstFcqSH3wxstcFyyGbdNnKGjtFnRzQ/cvBNfXnHlE2v1bVzj5IiCmmx32M/mapuf5fzdfHlv3tiVLFn8RvEuvUOcnIiIihUOx39KSkj0//c9bH/uB6iq63BDpjnhI89Aff7VqyaLP56xYsfzAzljM1yhIbQPrbTzY+92pB7hisxSfvegne7hAiOAv3DdpS+gW5dzrH3KBKrl95x0+urE4rm2TIGu/o08L1mgZOYKnTJjk3l939tGNx8i2aaCJ7e19xCluPsZddovL/WXez/fbutn+Oadc9p/OyRff6PYz7blHG8/z3MNGe0/cPbGxiHI2evXp54YcL8dJkJtJoc5PRERECmf69OkfJxLJvd9/c87Xz9z1v502YS6SLx7OPHLDhfVffvLBe6UlibGdqU/UOApS28BZ197nghuKzZILSOBHYHjs2VcES2SPXMaLb/+7217f/mu57VkwyTYvvu2ZYMnsESjTGBP9krIttsm2Dx13oTv2cJ+hFE2+8E9PuXkEc7Z/cj7zPac47JP9cJ6w3FP2+zM/gM0W14vjIrDlOAl6MynU+UnXUFlZecfIkSPVT6qISCdA9Yz6ulUH/HvmC3XP/vnaBnVNI93FN8uXeI9NuqTuowXzFye8hh/w0CaY1WklgmG78hN6yfE3PB2MdR3UDwUNFYl0NRNP24c6mQW5R+TCv59MSSaT1bW1tZcEk9oN9y7fGH9fzSt1d5Cuej8VaY1ivV+1ViHvd13JsGHDdunRo+f/DVhvo/IfnnJJT38YzBHpej79z5ve45MuWbli2df/STbU799V2tJQTqqIiIiIdBmzZ89+0fOS2yz69IN/Tf7NKXX/ntG8gUuRrmDWPx/27rvqFw3Llyx+cNnSJcO7UmOPClJFREREpEvxE+ufz5w5Y8/6upUXPnX7FQ3P3TuxQQ0qSVdB8d7HJ11c9+LDt37T0NBw4owZr/64s9dBjVKQKiIiIiJdUk1NzRUNDfVV86c++9/bLzrum3mv/MM1MCPSGRGcvvK3P3u3nv/juv+8PmthXd2q7Wtra+8MZncpqpPaCqqTKl2Z6qR6XkVFxXE9e/Z8upgaIOB+GrwVkRDVSZVM/Pt5uT/4ZWlZj7P79F+rbKexx66x9Q67e4mS0tQCIkWM4HTWPx/xZjz717qG+lVf1dfVXVZeXj6purp6RbBIl6MgVURiKUgVyUzfRWlv+o61vWiwOnq/o9fYfPgu3hq9U13aiRSTZV996c3+19+6VXBqCpYAJVAN3opIJ6EgVSQ9fRelvek71n7CwWqyob7P+t/aon7wNjuUDd5me2/gYPU8Jh2DougfvD3Xe3feq97C16bVff7hwrKS0tIvulNwarpc0RgpLP8P9A6GfjBzvJsg0s6UaJNioe+itDd9x9pfVVVV2aJFi3ZJJEr37bHGGoeu+mb5kB5r9K4fsu0OpesN+rbXp/9a3prl67ph734D3FCktZZ8+bm3fOlil1O61H8t+fIz7+N33/Dee6OmoW7lNyU9e/WZ+83ypX8tLS19eubMma8Eq3UrClKlVRSkSqEVMtHm72tBSUnJkd31D0IyUwAh7U3fscIbNWrUwJUrV+6zRp++B5eUlA1rqK8rX7li2YBgttOvfJ1kSWmZ0tCSs1Urv0ku/3pRk++OH5B+6X+fvmxoqJuxasXyhxoaGp72f/OLgtndln5g0ioKUqXQChyk+rtKjvH39XwwSaSRAghpb/qOFQ+C12+++WbdRCKxrj86ODVVJGd1/uv9srIyGmT8nK6S3FQRaVsEqbyCUZF2R6KtoqKiIAk2f19Jf1+7BaMiTRTyuyjdk75jItJdqZ9UERERERERKRoKUkVERERERKRoKEgVEUkjmUwOKS8vV6NJIiIiIgWkIFVEJI3a2tqF3alPMhEREZFioCBVREREREREioaCVBGRNCoqKgZXVVX1CkZFREREpAAUpIqIpJFIJBYsWrRodDAqIiIiIgWgIFVERERERESKhoJUERERERERKRoKUkVERERERKRoKEgVEUlvYWlpqbqgERERESkgBakiImnU1NQMmTlz5ivBqIiIiIgUgIJUERERERERKRoKUkVERERERKRoKEgVEUmjoqLiuFGjRg0MRkVERESkABSkioikkUgk7li5cuVWwaiIiIiIFICCVBERERERESkaClJFRERERESkaChIFRERERERkaKhIFVEJL07y8rKPg7ei4iIiEgBKEgVEUmjpqbm+BkzZrwejIqIiIhIAShIFRERERERkaKhIFVERERERESKhoJUEZE0Kisr7xg5cqT6SRUREREpIAWpIiLpHVdXVzcweC8iIiIiBaAgVURERERERIqGglQREREREREpGgpSRUREREREpGgoSBURSSOZTB7fs2dP9ZMqIiIiUkAKUkVE0qitrb1z+vTpHwejIiIiIlIAClJFRERERESkaCSCoUhWhg8ffkRDQ0OvYNRLJBInMkwmk7e5Cb6SkpIVs2bNui8YFWlTlZWVU/zvW3Vtbe0lwSSRdldVVVW2aNGiHwej5lz/Hvi6/318NBjnXvj57NmznwhGRVpF9zsR6a6Ukyo58f8sd/QTZXfYy5+0C6/wNJZxC4t0cn4CccGIESNGB6PSjVVXV9f597cDwvc6/7WVP+vAyLTNU2uIiIhIvhSkSk569OhxpR+ErghGm2EeywSjIp3d4Pr6+saSA9K9+fe3CcHbWP78j8vLyycFoyIiIpInBamSExqRSSQSaRNhzFNDMyLSFdXW1tb4g0dSY7GurK6uTvsQT0RERLKjIFVyli43VbmoItLVpctNVS6qiIhI21GQKjlLl5uqXFQR6eoy5KYqF1VERKSNKEiVvERzU5WLKl2R/70eUl5e/kowKuJEc1OViyoiItK2FKRKXqK5qcpFla6otrZ2oXLHJComN1W5qCIiIm1IQarkzXJTlYsqIt2N5aYqF1VERKTtKUiVvFluqnJRpauqqKgYXFVVpS5opJlQbqpyUUVERNpYIhh2OpWVlcngrYgEampqOu1vOlv+b39KMpms9oOES4JJ7Yb7jG+Mv6/ng0lFQfc/kea64v2vkPc7EZFi0qmD1PE3PB2MicjE0/ZRkNrGijFI1b1PpLmuev9TkCoi3ZWK+4qIiIiIiEjRUJAqIiIiIiIiRUNBqohIegtLS0vVKI6IiIhIASlIFRFJo6amZsjMmTNfCUZFREREpAAUpIqIiKTx5uyp3uyXnwvGspPPOsWMc7npopO9a8480r3ee2tuMEdERKR9KEgVERGJMfXZR7zfnXqA9/47rwdTWpbPOsWM87nu7KO9ac896r02dYp7rVi2JJgrIiLSPhSkioikUVFRcdyoUaMGBqPSzfz3kw+Cd9nLZ51i9uKT97vh2GPHe3e89LF7bTFsRzdNRESkvShIFRFJI5FI3LFy5cqtglGRbmvYTrsH70RERNpfp+34Wh3aizTVVTuzjypk5/bcZ3xj/H09H0zqcG1576MoJzllh427wPvys4+9fzx4q9enX39vxK77ejvueWCwlOd99uG73vQpT3jzZ7zoxtfbaFNvp70OypijRr3Ml//+sFuXbe55yAlueeo04qxr/+KG+L+bL/cWvjHbHccmm28TTE2h/uMDN/7GvQ+vY3I9trjlt6wc3eR8wXF++v4C79MPFnrrbzzYW3/QEG+X/Q5vtlxYpnWyvdap+qz/dNcDLLP1iJ297cfs7/UbsJabZuy6cV04rxcev7dxvZH+duPWQTbXwI53wbyZ3tKvF3uDt6rwt7V2s2uQy/UPH++T99zg1snmu5SNrnr/K+T9TkSkmChIFekiFKS2va4epBIoPHjjZa4o5xN3Twymet4OexzgnXrpze49wcqki09x76PGHHScd+zZVwRjq9199XnelIfvDMZWO2XCpMZtUWzUENxR1/H8mx5tFqwQtFHHE+F1kOux0QDQLRPGuaAriiDsrGvvawzqjt+5eSnvQ8dd6O139GnBWHOZ1mnpWi9Z/KV3s39sXIc4fdcc4J17/UNNgni7buHrGsY6F9/+dxcImmyvgR1vVPga5Hr97Xij1+An/3OVt9uBxwZj+VGQKiLStai4r4hIN0fAQFDxxyfne1c9ONU75JTz3XQCRAtCCCSYT6B4xtX3uJxCAlGCmbDnH7nbTSdAInhiebbJ9tMFNPnI59gsOGN5luVFYExwtvD1Wu+FJ+4NlkwFxARkYMh4pgAV2ayT7lo/c98kF8BxLJfe9Zxbl5cdH8f9xN1/cMtGTb76XBfssr3oOk/de1OwVEq214DjZt62O45x4yzDuJ1PPtffcA1s/5wrOb4iIiJhClJFRNK7s6ysrGn2XRdEUEGuFzlo5LpZztu9Ey9yQwIKcrosl3HYTnt4Z/8+1aAOuW3kApqn7r3RDY85+8rGYqFsj+1bwNMWcj02giqCM44hnGtHzu1BJ53j3k//52Nu2J7SXWvLeR532S1NckvDx0cQGWfI0BEuN9a2FV5n7rTVhQDa8hrk890wBOm2f87V1hURETEKUkVE0qipqTl+xowZXaMvkQzIRYuiriFBETmi4YDGEBBZ0Dl3erUbUn/U6mOG6y2a7x96UvCudfI5tvJ1U0VxqWNJsBZGYEWO3sW3PRNMaT9x1xrXP/2Gy620QDNsMz8IBdc2DvVPo+LWaatrkM/1D/vW5kODdyIiIvEUpIqIdHObbjkseLfaos9TGch9+6fqJ8a9jHW78uHCN92QBoPiEAi1hXyOzQInchKp43ruYaNdQz7U0US0wab2EnetTbQ+LkE/9T4f+tOVwZR4G2+2ZfButbjcyba6Bvlc/7C44xUREQlTkCoiIs28OedVNyQnjmKbca9oIz+F6iM0n2PDyRff6IqakgPIutSNvO7so73T99nSNfYUVzS1kMjdvOmik13wSCNMF/1kD1fv04oCt4W2uAb5Xn8REZFsKUgVEUmjsrLyjpEjR3bLflL79F3TDSmeSjHUTK9RY8a6ZW2d9pbPsYHcReqDXnH/K66BH4I1iiaTs0ggeM2ZRwRLFh45muRuTnvuUTdOjieNL9H4FK+20hbXIN/rLyIiki0FqSIi6R1XV1fXvF+RbsCKZC7zgxeKoWZ6WT1KW2fJ4i/cMKqtcirzObYwAjWKHhOsXfnAKy6YImeRepbRupqFQB1PcjTBsXBM9CVKS7rU7V17/Q3dvLbUmmvQ2usvIiLSEgWpIiLSzIabfscNKdKZLmih7iFFRG2+rUOgQ+AVFdeITtjypUuCd6t98elHwbvV8jk2huRWUsczimCKFnI7ytxpqetC7inHEhV3DfLRVtcgn+svIiKSCwWp3QiJBeo50aF6FAkK+jcUEQE5bRQFBd2NRHNBCXSoe0gRUWs1lnXGHjvevb/xwp81WYf3D91yRTDW1OCgMaF/PHirGxoCXfoAjcrn2AiAya3kGKLLsx9avIUtX0i9+/V3Q44hemw0nhR3DfLRVtcgn+svIiKSCwWp4gJUEhTLln4dTBER8byDf3quq3dIzuh5h6daguV+QeM+NOgD6k2Gi3TufcQpjetc9tN93fKsx/rkvMXZdf+j3JDGdniIZrlwE07Yy1tv48FuXlSux0bRVnIqOQaWZ/t2bOyHOpkEXnHFU5+c/Ae3bC65grmss82oKlfUlmPgmoXPhcaTaEW3LbTmGkTl890QERHJloLUboTiXHe89LGr6yQiLUsmk8f37Nmzy/eTmg45Zmdde58LXAhgyIXjgRaN+9DYDg36UG8yLLwOwRDLsx7B5k/+56pgqaYIZGjEh20SqFouHMVP2VacfI7NWrZlebZvxwYCKupnhu069igXiLE8y85++Z/BnPTyWYdzOff6h9xxc83sXOZOe97lTF/4p6dccAnrLiZfuV6DdPK5/iIiItlKBMNOp7KyMjn+hqeDMWkNnn6TuCCBokRF5zXxtH28mpqaTvubzpb/25/iB4/VtbW1lwSTupW2vPdRxJM+LymSmU2Ol+UK9urTL6s+NSkG+tG7/25cnvVpwRY8MItD8dYVy5Y0OSbbb1x9TZPrsYVzODNtF7luG9F1sr3Wdv4IH1fc+rYsdUQJGqNaum7ZXIOW9mGyuUbZbisfXfX+193vdyLSfSlIDSFBRafpPL22Ymk8vd5lv8NdC4txqHvz4pP3N/YJxxPkqgOOcU/T0/0Js87Tf7nJFZNCunWoP4q4xJwFlhxfOGeUdZh22LgLvOvPP9GdB0/1T/jVtS5xQAIxvI7tI4xglS4G7vrfc7wd9jjAO/XSm4M5TdGXH9u/6sGpWSVwo9cKLV1fEj7P/vX2xm4ZKBK3w54HefsedWrsPrO9tuDzfuGJe73p/3yscXmu1T5Hnpr2eLju0eVH7f7D2O2TIHvi7j+47xM5DRz7Njvs5u15yAktJorzoSC1e2iPe1+h8HtuKUgVyYeCVBGRrkXFfQMELNSrofgTCJ4IQAioqF9DfZso6vMwj2VYlnWseBt9zUUbk4CtQ5ATt05boPuHK08/2Fv61Zdu++yLp9txmE8gB4aMr7PBxn4wVeWmERzGnQcBmAXA2QSoE07cu/FasQ/bb6brS8Bp/QbasYHPiPpT5CyE5XJtOSemMY/lWZZ1eM822FYUdeVY/jN/m3YOLB+3fRLj1CXj2CnmyLLUK2Occ2ptkT0RERERka5KQWrgmfsmudwu6tdYH3UX3/aM6zsO1LcJB0W0hEuwRO7YpXc955ZlnT8+Od/lPhK8TL6maaBDLlzcOuREWoDUFi3ssh0CIzprZ/vkWKQLJJlPTiMYMk4uIstzTJgb023EtOcec8Oq/Y92w0w4J46J7XF92AcvrjO5trA6UYYgj2AR1G2yz4RzsjpQf530OzcfuV5bPpvoMbEO6zKNbYWXJ6i0hxF2XW37BNBsi6Da0OIlOHY7lvD53nPdr91QiltlZeWCESNGjA5GRURERKQAFKQGFr4x2w132usgNzQUyyToJDihPpB56t4b3XD8VXc3qX9Dkc9jzrrCBUvkmoUD2+pHJ7thdB0CwoNOOset899PPgimtg7bS1fcOFsUe8XMF55ywzDODduP2d8NM+GcOLe4YwrXgSV31rz894fdkKAuXPSW9WlVEsuWfOWGyOXa8plw/Eyj4Y/wMbHuUeMvde/tM8b776TazqFob3h5tr/vUeNcoLo8dDwErYgWG+Z82e/6g4bE5lBL0RlcX1/fK3gvIiIiIgWgOqkBipuSm0cwSlBDU/3pEExRlJPAhNyxODTDTyBEa5a7HXhs4zoEKNc//UawVGb51klFXD1Rqw8WXce2FW04iSDq5/tt7d6T22jBmZ1LpvqquaAYLbmU5FpbXc3T99nS5ZaSs5muEQ6T67Ulh5T6tuTIpmvJMrp/clKvO/tot49jzr7SdRkRDbjDKN5MoMo1GnvsL1o8h7ZAnaxkMjkhGO2yEonET/zzvKsQdbS4z/jG+Pt6PpjU4TpznVTuKTSkhPaoly3dl+qkioh0LcpJDdBPHwEIgQXBCEEKgSZFOKM5Xl9+lgoaqfNJgBX3spw063vUWmukS4VCiAao+SAII8jCO0En77CiviN23dcNc8G1JFjmurq++fxgjgA1igAR2QR3uV5by1GlQaO4z46XsW3z0IIHGBwXxZAJ3lmOgDdaNxY86AAPKgigaWSKeq7tXRfVD+CquvrLP82F/vDF1BlLZ8I9heBUAaqIiIhkopzUEIKNFx6/19VHtCDJ0Ffdj07+lXtvOY/ZsNzJdLmYmbQmJzVunVxzUkEwSVAWznW0Vn3DuastYTsP3XKFWy+MBwN2rcM5qZnOIyrXa0twGRcYxwkfEwH2q1Med8WAo+fBvul/MHw9OC6KLfN9CrPc2HQtCOeru7TuW0jKSRXpHJSTKiLStSgnNYTcRwJRioxSzJOgjdwzUBSYYA60fgsCE4KoTK9o0NfZUKwV055N1RGlaC0BGjms2QaoXDcCXVuP60rH/VzjbIs+tyXLZeY44j6z8Cuc48P5UnSbIt4Up6Yot+U0E/TePGGce29Yl8Ce7XC+POigiLjlxhLESnHzE4dDysvL48v0i4iIiEi7UJCaBsVMCTBpmZVgBPNnpEoYrr3+hm64IFQEtiXWBUymdcg9DBc1LQYEZgRiBFYUVZ0zNZWhlEtR3ycn/8ENyZWkDivXleKzmYryktsIguI4XCeKCjM/12u77oabuOG7QWNZ+SDQJWDlfAi2kSl3lvPlAQgBrgW2b8551Q2leNXW1i6srq5eEYyKiIiISAEoSA0QwFAPNVr/FBtvtmXwLoUcMiumGu52JIztUSzW6iASkFkuWlwOmm2nT7/+bhgWV+fRAuZC2Hnfw9zwzdnTvOn/fMyde7ZFVTlXzhnhXEmTLjdxhz1TrSxbUBzG9SAgpL9Srmuu13a7HXdzw2jry4bvAN8FgmCbT/3Z8OcZFg22CZwtiI6z6ZbDgnciIiIiIhKlIDVAAEOQ89CfrmwSqPL+sTt/794PDgUX+x3zCzecfPW5zQIjGsghiKJhpc1CjflYf6S3/mZ8kxxC3rMdWEAIy3EL9wcKAqZs61TmItyFShi5gASmr017PtVibRBAZmPDTb8TvEu1qhvGdZt4zrHBWFPWFRB1ZcOBIZ/HjRf+zL2nnqzJ5doSVFJUG2wrHKiy/WvOPMJ9F/oNWLuxaDBFvCmu/PCtVzULbPk8YEXD2T65ulyr6DmzruUsD9psKzeU4lVRUTG4qqpKXdBIXuyBld0jwrj/tXdDaiIiIp2VGk4KEDxMOGGvxlw/C2IINphGABLtU5Ng1BrFYT5BjS0P6iFGu7IJr2P7sIAz2iUKiRgaBAI5hfStadtnWbbDNlrbcJJ1yQLm7bLf4c1ySsPHHXdemZBAo04v7Dw+fX+BC/ossCOgi27XGm1C9Pq29Hm0dG0tGLVWmKPLE5RffPvfm7SSbN3KwI7HzoPlz73+ocZcVRKftBIN5lnLw+mOpy2o4aS2p4aTpDXS3XPt3hbXWJ3kRw0niYh0LaXBsNMZOHDgJaN/8ONgrPX6rlnujdr9h15dXZ237OtF3oL5NS74WGu9Db39jvm5d+TPJzQJiFDx3T29DTfd3FuxfKn379pX3PI91+jl7fKDI71xl93sbTZ0eLDkarbO5x+/17gOAc8R/vZ/8OPTg6VS1tlgkLfNqO9536xY7i871S278WZbecefd603ZOsK719/u88FfN/d+5BgDc979Par3fDAE892w7AvPvkgdh32X1+3qnEfa661rjvOsEQi4b3y94dcwHX8r64NpmZn6Pbf83r26u19/uF/3PZ5rbfxpt4Bx5/lHXeuf7zJpFf7//7h9e7bv8l+yWm08587vdqtl83nkc215Xi2322sCzSX+UGvLU8QzfZP/PVEf1+pgN+ElydYZXn/4N3nfdIFf/D3vUVqQd8Gm2zWeOwUS/7gndczHk9bmPrkn72PP/64y/eTWkjcZ/zBXZ988knT5pw7UFvf+6T9rNGrrzd8l73cvWnA2usHU1MPseZNf8E1TLfFsB2CqdIaXfX+5//eKTL0rn8PKpoHZSIihaCcVMmK5Qy2Rw6gtA3lpLY95aRKe8jU7ZfkRzmpIiJdi+qkSlZqXvqHG445MFX3U0Skq3B1xf3AkfqjvKg6QFHdKIrpMv+mi05u0naBYTrzrbG2uDqpjFc/Otm9ZxheXkRERFIUpEpalggjsUZdT4rCRluyFeniFpaWlqoLmi6MAPGcQ3d0OZvUGefF/Y66pASrYRTPpR46LYO/8MS9wdQUglymM9/6l16xbInb3sJQd1eMp6oKeG7I+H8/+cCNi4iISIqCVEnr5gnjXENM1njT0Wf81g1FuouampohM2fOfCUYlS6GB3DWOBv9Yf/xyfmu0TkaceOhHMEqwaehHrzdBwlqraXvcKvdJ10wsVl9+TC2TzFfMGRcRX5FRESaUpAqaW09chc3JLF2yoRJObXoK9JZbbfddoOGDx++TzAqXdi9Ey9yQwLU3Q48tjG45F539u/vd+8JRsNFe5ln3YNZTitDWh0fe+z42P6gRUREJDcKUiUtnu7zlP/KB15p1iWNSFcydOjQfhUVFT/2X/8oKSlZ0NDQcF0wS7oocj9ppZsWywlQo+h+yrqmonXxsGPOusKtR1FdAlSGPMzb+4hUrqyIiIi0joJUEemWqqqqyiorK/f0X5N79uz5USKRuMl/ve+/9q2trd2aZfyg9bhRo0Y17YtIuoRFn6f6ku7bfy1XpDfuZaJ1Rslx/dnFN7r31jdzS8V8RUREJHsKUkWkWxk2bNi2fvB5+eLFixckk8mn/Ne6/uvUAQMGrFdTU3O8/3o2WJT+ge9YuXLlVsGodCFvznnVDWm8iCK9cS9ySNOh2C+5p6D/YxXzFRERaTsKUkWkyyM31A9Mf1lZWTmrpKRkjh987uMHptf07Nlzk9raWnJO/1xdXa1WfLuRPn3XdEMCzPNvejTja9SYsW7ZMPqOtlZ6KTbMuIiIiLQNBaki0iVVVVX1CuqZPrVy5cr3/MD0LD8wfbqhoWG7mpqa4X5g+vvp06enynxKt7PxZlu64bKvF7tc0Ewv6qeG0ZDSLRPGuffWUi/jcX2nioiISO4UpIpIlxLUM71j8eLFn/mBKfVMP/Zf+/qBKbmmv5o9e/ZrwaLSjW246XfckNxQuqKJQ71UGkaKzp98Tao1X1r5pYE5howzXURERFpPQaqIdHpWz9QPTt8L6pkOSlfPNEd3lpWVKbe1C6KRozEHHefe0xVNNBd06rOPuHqpNIxUvu7qtrMo1jvtuUdd67608otDTjnfjTNdxX5FRERaT0GqiHRKI0eOXDdaz9SfPLGhoWFIbW3t99uinikB7owZM14PRqWLOfin57o6qdQpPe/w0d7/3Xy5yz296aKTvUkXp7qToTivFfclkL3nul+794ec8uvG1nyZv98xv3DvmZ9tsd8nJ//B7S9dTq6IiEh3pSBVRDoN6pkOHz78CD8wfbyuro5uY6hn+qz/Gk49U/919Zw5c94PFhfJiCDzrGvvczmqFNd94u6JLveUHFFa7j1lwiRXnNc8c98kVzyYwDbatyrLsQ7zWS6TXcce5bbBPtnf7Jf/GcwRERERJIJhp+MnUpPjb3g6GBORiaftQ85fp/1NZ1JRUbGbPzjaD0qPSE3xHvFfdw0YMOD56urqutSk7kH3vvZjOZq9+vTzNtl8G/c+zOZT/DfamBI++/Ddxv5XaXCJHNWP3v13i9tLN1+y11Xvf/7vfUoymayura29JJgkItItKEgV6SK6WiJt5MiRW9XX1x/tvz3OT6RRKfB5/3XXqlWrHpk3b94Slmlv/n3mjtLS0iuLqciv7n0izSlIFRHpWlTcV0SKhtUz9V/T/QB1vj/pQP/VpJ5poQLUwHF1dXWrW80RERERkXanIFVEOlS0nqk/6dxEIvFiUM+UPk1Vz1RERESkG1GQKiIdYtiwYbtUVFT8afHixR81NDTc4U9aVFJSsn95efkmfmB6Rm1tbU1qSRERERHpThSkikjBDB8+fPPKysrL/NcCPyD9lz9pcDKZPGPVqlX0Z3rMrFmznu5uDSGJiIiISFOduuGk4K2IBIqx4RDqmdbV1dEqL63zjvaHr/mve+rr6/9c7MV4KyoqjuvZs+fT06dPTzXZWgR07xOJV4z3v9byf+9qOElEuqUud0MXkY5HPdPFixeP9d8e7SewGH7uB6j3+e/vUjFe6SoUQEh703dMRLorFfcVkTYTrmfqJ6wm+68V/usg1TMVERERkWwpSBWRVqGeqR+YXlIZ1DNNJBKb+5P/h3qmflB65OzZs59QPVMRERERyZaCVBHJGfVM/eD0FD8w/VcymXzTn3S4P7ytvr6eHNMx/uvWAvdn2i4IvEeMGEE9WhEREREpEAWpIpIV6plWVFQc6AduD9fV1b3X0NBwmT/51UQiMaq2tnZr//WbLtif6WA/8O4VvBcRERGRAlCQKiIZBfVMb1q0aNF7/uhfgnqmh5aXl29IPdNZs2a9mlpSRERERKT1FKSKSDNWz9R/vRnUM93Wf/1K9UxFREREpL0pSBURxw9IyyP1TI/2X3f574fU1NR8r6vUMxURERGR4qYgVaQbq6qqKqOeqf960B/9KKhnWlNSUrJTbW3tFtQz9V8L3cLdEAF6eXn5K8GoiIiIiBSAglSRbogWaysrK/+4aNGij/zRv6SmekcG9Ux/PnPmTAVmPgL06urqFcGoiIiIiBSAglSRbqKiomKw/7rAf73Z0NDwsj+pknqm/nBDPxg71H89onqmIiIiItLRFKSKdGF+QFpeWVl5EvVM/YB0gT/pJ/6rST1TPzhd5BaWZgjs6XonGBURERGRAlCQKtLFROuZ+gHp5f7rtYaGhu/5AWm3r2eaCwL7RYsWjQ5GRURERKQAFKSKdBHDhw/fvrKy8jqrZ+oHWGX+kHqmm/hB6amzZ89+0S0oIiIiIlLEFKSKdGLbbbfdoIpUPdP5yWRyuj9p+5KSkgvLyso2qampOcgPTqlnqoZ/RERERKTTUJAq0skMHTq0X1DPdEppael7/iTqmd6fSCS2oJ7prFmzJs2YMeNzt7CIiIiISCejIFWkE6Ce6bBhw8ZWVFT8pUePHp8F9UxfD9UzvcQPTt8KFpe2s7C0tFQ50SIiIiIFpCBVpIiF65kmEomH/Vcv/3WM6pkWRk1NzRD1GSsiIiJSWApSRYoM9Uz9wPQ8q2fqv2hddkJZWdmG1DP1X39VPVMRERER6aoUpIoUAeqZ+kHpcf7rH0E905MTicRfqWdaW1u7k/+6XvVMRURERKQ7UJAq0kGoZzp8+PB9KisrJ1PP1A9Ir/MnL6SeKcVM/deFqmfasXhwMGrUqIHBqIiIiIgUgIJUkQLzAx8/LnX1TN/zA9LH/Un9qGc6YMCADWtra3+qeqbFw/9c7li5cuVWwaiIiIiIFICCVJECsHqm/muOH/jMSiaTu/iTf6t6piIiIiIiTSlIFWknMfVMT/Nfj/jvt66trR2leqYiIiIiIs0pSBVpQ9Qzrays3NN/Te7ZsyfdxvzRn7wwmUyOqamp2YR6pn5g+npqaRERERERiVKQKtIGqGfqv/538eLFC/yA9Cl/UrkfoP50wIAB61HP1H89n1pSOpk7y8rKPg7ei4iIiEgBJIKhiOSIeqalpaVH+G+P9l+VfnD6qj+8xw9q/qxivCJdX2Vl5RT/d19dW1t7STBJpE3pOyYi3ZVyUkVyENQz/TH1TEtKShb4k8b7rydC9Ux/rwBVRERERCR/ClJFWhBTz/Qm//W+/9pX9UxFRERERNqWglSRNIYNG7ZtRUXF5VbP1H+t679OpZ6pH5ge77+eDRaVLqqysvKOkSNHqp9UERERkQJSkCoSMmrUqIF+YPpLPziZVVJSQp+m+/iB6TU9e/bcpLa2dl//9Wf1Z9qtHFdXVzcweC8iIiIiBaAgVbq9qqqqXkE906dWrlz5nh+YnuUHpk83NDRsV1NTM5x6ptOnT1cLryIiIiIiBaAgVbqtoJ7pHYsXL/4sqGf6sdUz9QPTX82ePfu1YFERERERESkQBanSrVg9Uz84fS+oZzpI9UxFRERERIqHglTp8kaOHLlutJ6pP3liQ0PDkNra2u+rnqmkk0wmj+/Zs6dabhYREREpIAWp0iVRz3T48OFH+IHp43V1dXQbQz3TZ/3XcOqZ+q+r58yZ836wuEis2traO1UfWURERKSwFKRKl1JRUbGb//oT9Uz9gPRP/qRF1DMdMGAAuab/479qUkuKiIiIiEgxSgRDkU6Lfizr6+uP9t8e5wemdBfyvP+6a9WqVY/MmzdvCcuIiLRGVVVV2aJFi/6YSCR6BZMoDr6PP05Oe/jh11xKagTvRVqlsrJyiv89q66trb0kmCQi0i0oSJVOiXqmdXV1P/bfHu0nErf3h7TEe5cfrN6nYrzSVvwE4oKSkpIjZ86c+UowSbox//twnT/4ZWosnh9QHOQHFI8EoyKtoiBVRLorFfeVTiNaz9SfdK4foL7o/4FTx5Q+TVXPVNra4Pr6+sacM+neevTocaV/v8nUyFqNAlQREZHWU5AqRW/YsGG7BPVMP2poaLjDn7SopKRk//Ly8k38wPQM1TMVkUKgEa1EIjEpGG3GD2AnBG9FRESkFRSkSsH4geYF5IRStyuYlJa/3OaVlZWXBcUt/+VPGuwnAM9YtWoV/ZkeM2vWrKerq6vrUkuLiBRGhtxU5aKKiIi0EQWpUhAEnf7gYj9x95dFixbN9wPW0ym+m5qbEvRnerr/etlf7k1/0oH+6+b6+vpN/MQf/ZneqYaQRKQjpctN9e9ZykUVERFpIwpSpSD8BNxpfsLO5aD6w8391x/9YHWB5a5WVlY+HNQz/bU/7xV/eatneoXqmUpH8b+HQ8rLy9VokjQRk5uqXFQREZE2pCBV2t2oUaMG+gm6U4LRRn4wOtB/XUY9UxJ8/usg1TOVYuJ/DxdWV1dnaihHuqFobqp/71IuqoiISBtSkCrtbuXKlaf4CbpMLaQe6QcDR86ePfsJ1TMVkc4glJuqXFQREZE2piBV2tXQoUP7+QHq+GC0GT+R97oSeFKsKioqBkfrTovAclOViyoiItL2EsFQpF0MHz58n4aGhsf9xFxsi75+Au94P0i9MxgVKSqVlZX+VzQ5xv+OPh9M6nAcU/BWREJqamq6XJrG/71P8e9B1f496JJgkohIt6AgVdoddVJXrlx5lh+onuSPlqemOu8PGDBgiIr4SrEq1iB1/A1PB2Migomn7aMgVUSkC1FxX2l3FIvz/2D/x/+jHeK/zvAnudZ6/ffXKEAVEREREZEwBalSMH6gush//Z7cUz9APaa8vLxZX4MiIiIiItK9KUiVgiP31A9W/6yuPaQTWFhaWqrvqYiIiEgBKUgVEUmjpqZmyMyZM18JRkVERESkABSkiohIrCWLv/SevOcG75ozj/SO33lg44vxqc+m7znKlismnAfHxLA13pw9tfEatAWO5/lH7g7Giot97pxz2OyXn/Puvvq8YExERKTtKUgVEZFmCELPO3y09+CNl3mvTZ3ibbvjGPdaf+PBbnzSxad4E07c23vvrbnBGpIrAlSu77KlXwdTih8B63VnH+199uG7wRQREZG2pyBVRCSNioqK4+hCKRjtNghQCUKXfr3YO3Tchd4fn5zvnXXtX9zrygde8a56cKo3eKsKb+Hrtd7155/ocly7iy2G7ejd8dLH7lp0dZwj58o5i4iIFJKCVBGRNBKJxB0rV67cKhjtFsghI0DFKRMmefsdfZrXb8Babtyst9GmfgBzn8tV/fSDhd4LT9wbzBERERFpPQWpIiLS6Kl7b3LDMQcd5+2454HufRwC14N/dp7LUU3H6rSee9hoV7fx9H22dHUZ0xUVteUpRszyvHifqf5rdB/ZrBNGcWWOi/WyqRuark6qTcv2nJlHUV8wZJz1wtjXTRed3Hh8LV0/cN7h68f6nCPbZjxcvzQ87f9uvrxxH7xHtE4q47879QD3niLfzGMa27d10+G4WSbbz0VERLo3BakiItJoysN3umHlzt93w0wIYi++7RmX2xrnmjOPcAFYnzUHuPqsFB9m+xNO2KtZEWHGbXmKEbO8FSkmZzeuoZ7wOuToRtexYCsdgr0rTz/YHRdB+W4HHhvMyV+252z1e8GQ8XU22NiNg2COgHDac496ffuv5ebDthVXF5hrxHlz/lwH1mF9zvHdN2YHSzX32J2/9564e6Jbh31xzHEGbzms8aFE3+D8mLbJ5tu4c2A9GlWKM+3Zh91wm1FVbigiIpKJglQREXHCuWybDR0RvMvfZ37geP5Nj7pAlvqN1GW1YObVKY8HS6VMvua8xuDK6sCy3qV3PeemEZxFczpvnjAudh32SRBF4JWuYScCxhsv/FljgHrs2VcEc/JH7mK258y8qgOOce8ZMm451xxzuMg19YCZf/3Tb7g6wmwrWheYz45rxHmH98/1A8FqOhw3+2Ed9pXuWvzo5F95R42/1L0f4n8/2D7TsMMeqRzWmpf+4YZhBK4cM8tEi46LiIjEUZAqIpLenWVlZR8H77uVtggmjjn7yiaN7lCXdd+jxrn382e+5IYgR9PlGPoBFnVdw/sml84Co6fuvdENwToEV3HrsE8CT4LDDxe+GUxdzXJgCXDbKkA1cedswWj4nDOZ8shkNyQgjRa5JteaHExyjudOrw6mpnJDEd0/12/8VZmLMRPkZyranY1d9z/KDS3HNMwC1533PcwNRUREWqIgVUQkjZqamuNnzJjxejAqOdps6PDg3Wobb5aqt7hsyVduiLnTUsHWDnseFBscE3QRjBKYWc6orbPNDrvFrkMOH7mCccGX5cCSs9eWASriznmL7bZ3w/A5Z2KB3qgxY90wauSu+7rhzBeeckMQsCOuOC3Xj4A9nSFbNz/mXBGME+ySYxot8sv58PkN22mPYIqIiEhm+Qap6/ivXXJ4pW9ZQ9rKZv6r2K61ff5x+A4VQvi7yjUSkQIhcMnGfz/5wA3nTnveoyGeuJdZsWyJG1rfoptuOcwNs/Xk5D80BnQEvW0t23NOh1xeAj1QxzTuWlQ/fo+bb0GvFdMmSEyXA77+oCHBu+bW3XCT4F3rVO1/tBu+OXuaG6KxqO//b+9coC0rqnO91YHDK6+oJJcoKqDcSFBpQUCNiaAmPHxiNHBJJCREEEwkAQWCUSQoCkHuYNwAIkaNGJ4i4EBQIiAoEbpFG4UQrgpoAEEURXkkKvStb+31d89TVO299uM8+pz/G2OO2rvWqvc63fXvWVXrlbu3McYYY8xwxhWpWyb78gh2bDIzu7wx2ULra41/BNH4/mT9Wdbssn+yHyVTPc5OZoyp8IQnrtd+6oulueK29lAfRCMCsmQSbpNCPog5PIt4U7uc6DuX/OB7/6/91PeOlox6l1hvwye3n+aHrbbve3Hj/lct9e1yEJcxxhgjprHc9wsd7LpkZumh8Y/wA8cR/Y+zCl7TD/c/9ninxmHJPtR8M6Yjy5Yt+/i22267ZN6Tyv5FlmXCLf/+9SYcBPtCedUKHr9JRK28j+zB/PjVdw20uN9yHBCo7GHl9Tnw6Q+/f04F+TB+baON20+9YvujcXBR5P777m0/zQ9a8huXZXuprzHGmHGYhkjdpYO9K5lZemj854OntuHXknFSy3HJziLCmBHY51e/+tUa1bAE0LLM0imtOSuuuKh/gM/yL1WXmXZBy00HvSYl54nrrt+EtTQsgY3v/BTbvfy1TV3Zq8oBRHhWP3PawlmAEpcL104mzvnNZ/6vJsTDWhPcP7z91vbT7KIlv8sv+2wzBl7qa4wxZhzm6+CkuHdSeylrexS5T3sKu+xjVH5YV1TGNPZzxvIH7YHMy1O6rnVQncfZ26n6ldIOyje/pu9AHJ9jm/mu68D9W/U/rr6fuBLjjKMgjcqBQfmoDYPKydsW223MomLXvQ5oQl5nwrs6a+BFZX8n6PTacXneDjs2IctEyTcH4YXgPGrfnVdf19JSBHJJmH310vMbgRTfPZrzRwf+XRPS1vj6nflGr3PRKb85F//LSU1/EAKiW+9RjSf+Cto2G/tvS7xwp9c04Q1pXL751cubzzu9frLnwxhjzNJjvkSq9k7umey77Xf2Dmrijyg4NBlrl1Ym055C7vl8spKwIe13kik/bFUy3lkgUZWTl0FIHrslGxXakpfP51p+XKcPaAttUrphdSCe66oz71eg7FFgZkba0ro5ThTh2r7Nt5mcl4xrmzTf+vXnO22gHnymHfQr8B0T3K8luBx3ybXchaH2xX5kjJRnF0iTl4NF8n4cVI72YLPvl+dJabi/9mwZs1aCJ49lt8C7OhFCuQhE9Bz153+wen8nr0WZBJYZS2Tx7tIoVCmb18VQFnsu5WkklCeU03pjHRHXemeoxGwJyn313gc1nz/6vn44HzyUnfr7yjf+eROW3g1L2849+eim3To1GF67z1834enHHzZDcNOXZ5z4nvbb9KgtLUYwI7Lx6iJU2ftLPxtjjDGjMF8iFZ6djA017FlkvyDhTcmAQ3UQL/wveEwyrhMyC9k5GUIqigNEEqLhWcm0/1D34xYoHdKD2JBAUhoO1iGPzyUbRfghbGgLp1YoLwyhpfxKnjfaQFu2T6Z2xjS5JxZhRTzXqSv3X5qMsl+erCt6kd3vtKGgH7VmL8+PulAu9ctP7UC8Mlbqw39LVuITyegfIB/uJ07Q53n7dD9jteYliYOJ6VQOJhivccrZLxnPE/cyXiwf/nEyYxYViE4JVQTRX+225eqTZdmDeswBr2tEEiKR/Z3TYP8jT24EL+Lm0DftsLo8yiYOwZm/LkZpOEzo8D1e1NyPtxVxDbwzNC6fLbHznm9t8sbTKM/kXKElyxd98sSm7vJcs+/2rUf1f2f75384tOlz9b3ahriO+3P5zDtfGRfGh34gDX15T2rboFfQjIIO12JMKCNfTg3btK/I4R55hY0xxphRmIZIRXwNsxISCOxZZL8gIRN+hBhCFHHB/8DsZ+U64RbJEJ4IKbxbglNcgf+9tf8w3k9+0ftKGYgNrvHzvdIgkn43GSBUcpFYAqEpsRvzwhDiOjjoJW0Y4Wdw2kk91c6YBs9d5FNtyPsYqKvqzHfa2JVr2vAP2lC8qA0hz+/32xBRXIKxUn2+QkQBZrNn9D82Xkzu1wyXvpY4jO2jP9VPjBljNwzS5eVgwPOo8crLYfz0wwbxOTyzesYYL0KziFm1atWfPf7xj1+S70lFqB537rWN8JEQxB742U8a4YGI4uCeSfaiRsgHwYs4juUhroj74NnXPEpwxjTrbvCk5n4JoyNOubD4jtQc8kDMAsuXS8uNZ4sdX7/3ak8udb95pf5pTv+gprrTBtpCn3MdIa228R7YHEQ84yKxTxruP/Jjlw58Bc0o4BWlDIQ9ZcSTfEV8V+v2r3ht+8kYY4zpzmPacFSY6OO57EpeDstwAUGYCxry3ivZVclKP9ETt0cyvF8SHiyXRVS9KtnFRATwmnFc5TnJ5AFUHoiUUhmIJYQKguRUIgaAuNLSWIRLDgKan8QRnvEQIfVBqc6lNPKichDQdkRkqE15OTXwfDK73CiZvIHKgx8PCJclG9Rn6vc4FhG1MY6/np28nmozXsqS+EM04jGmbiUBmVMrR2M7rJzYz/F5H/dvxpipsGzZslUHncSfnjHdwQuLyOWHh2He5Ulh6TUecH5gOPacNcJ7Njnxbbv0Vq5cuej+fU5/71esWrXqyuuvv/69bZQxxiwJpuFJRQQMsxpa3htBtCIeSuIRShthtHwVTyPv4IxeU8QT4jEuUUVsQe34SgQydDmS8JZk5F8SqDDs5X6l0zpKRzpqae65bZhTP+GkjPo37kvFs4o467/pfqZnVV7XUp/d0IaToL6+qA1z9HZ4jd24SHjK05qj9q3Z7LUG+sYYYxYcLO3FSp5g4hCoeD9nW6CCDm/adS8vNjHGGDMe0xCpeKmGWY1B+/lYRosHC08owhPXAZ45vGA5n06GgMAzyDs4OdgGMYvXLF8eGpfwchATeeaGJ20cqC8eQepMfanDsLy67mnctg1rovf2NuyKhLjEL/1C/7GcVz99908yWbNXlT4u1XfmqR/jwTJnwFtcGhOW+04Dic872zAnto/xjHQdK2OMmVMQnyzvveQMba/vg1eTw6hgNl8Fo4OrEMSf+Uh/7/CgQ6uMMcaYQcznwUmDQOTptFg2CyE8WVaKV7YkVhAPeMhYOstyUO1bRdAielYk00FLen8m5B7f3K5L1gWEMHsfqS9LVqkz9aWu0/a+/WcbToo8k/KQcngTXJ1MXmdd0/7Umhd3GrDfE+iv0lhEmwZ4wI0ZyLJly27dZptt4ooCYxYkvDoITyknAvN6GnlWdfAU+1Tf8JZ4ftx0ueqiM3p/9jsbNwc14bVlr+1ceG2NMcYsThaiSGVPoA624QRV9q0iYNhrglcWMViDvZ2k55Rd0umEX7xnRyeDuMQ49/jmVlvCG8EDiRCmjvyEjVBmLyf1RThPS9j9tA2f24aTgkhDENI3CPjfSwY6JAYxiNCnfTrpt3Zq7zSQmP+bZKWxiDYJ/Z/7H+0lLVHztpqlw6YPP/zwE9rPxixYEIQckMRBVzpECkOccrAUB0xN65CrEnodDkIZgVo62MkYY4zpyriHDEx6kAzLN6GUFq8n/9vVDjWqHdbDktT81SigA4cQXRI4OjSodGgRINp4F2gpvxyWIuPprR3Eg1cY0R3Lh0F9oP6NaYYdLFQ7oGkQqjv90H8r/5plt6o348CSZcQd4j+isSgdgAWlNpbaBjqYiR8Waj8OkLZ2cnBOrRzVufZ88RyxXDy2t5aXWeRwSFEKVq5ateo/rr/+ep6Zhhe84AW7pLjcLfWFlStXrn5HSkp7eAq0CqHhMY95zLHf+MY3eAYbtt566zNT3Mbt14Z11lnnf69YseIuPm+33XYb//KXv8y3DOzog5OMmQkHJyW+1HxZXCxL/9ac6IOTjDFLjYXoSdWewdI+RwTEjElfC6ITYRH3mw5C4uTtbZjDy/LIT69EGYT2ispDF0Hs9jcDTY4O9GEJc95Oynln/+NIXN2GeyfDExxfLyOv6SFtWHv1zLTQwU+0T0uzI4hwhOIgT3oXdMjW+5KVytHP/yUBa5YYaXL4V8l4x8aMA84eeeSRu1L8lZnNeFUN37PrV5KuvSyuze/5xS9+8V/ttR6f8+vtJWNMRv63skjsxMc+9rF6/ZwxxiwZpuFJ1XtFhxE9YIO8iPKosfzzL5LhzURM/H4yRKPWK0VPqjyCpDkymbyj1PMTyfR+S71OBpHHveTFHlbSsvyV+HckQyhpmfCwvYvyYHL/nyRT2Xhwj0om0Z174Ub1pILayV7XfZLRp9SZfpF4H9Xbp3pA7l2M10qv45nEk0obOFk4HkYkLzpjw7Jf8mTseV8sfQw173dOrQ/Jj3qrHD1jg8a+lpcxc45fQWPMo1msr6AxxpilyjQ8qUzeu1hXPpBMIgFvJkKHU3hZ8sZhP1pit2kbwgnJEBykYWkvaTDK1V7RKLAQH5xcSzkIYgQT9xNKpLCkdphAhXiycCybz8RpiaCW0U4Cy2AR1bSJtqnOCEXqMA4IL6HDlES8Vntdz6iwz5P+pQ2Ma5xtIwA1jmof90igshS4i0AdBKIYYapy9IzFsefZ6DL2xhhjjDHGmCnzuDYcFcTXZsmY2He1uFzlxcnyOHF3Mg4beiDZg8m4D4HEfgy8pD9I9pxk/GKKQISHkp2W7OZk9yRj+a/SHZxs5pn8fSjno8kQI5R1RzLSHJ8MsYJXrwuU/Zlk5LNOMvLgVGC8niwdJZ8tk9EWltAigmBQH6h/yedyIgK0mXY+nIw6q43E19IM4lfJ1k9GXf4vEYF1k9Em8qR/c9QuBDn9mVNqI+1HmNJG6s+BUMPG8ZxkeI7PS9aVQX1IXVWO+pH7/jEZY39rssigvIyZUzbeeOP3vuhVLNowxohrL/5U76677mL1kjHGmEWAl8YYY8xahJf7GvNovNzXGGMWFwv1PanGGGMWCBf/y0m9w/7oRc17MHkH5yePP7x3/31aFDI9KIcyeL/nUsV9YIwxxlikGmOMGQCC9NyTj+498LOf9J67A9u1e70rzv9EElG8ktoYY4wxZvpYpBpjjCnyn9+5sRGk666/Ye+DZ1/TO+SEM5vwN562ae+2/7i+982vXtbeaYwxxhgzPSxSjTHGFPnWtV9qws1+e5veehtyflivCbd/xeuaz7ffMuPVsMYYY4wxU8Ei1RhjTJFNNucg9V7vh7ffOmMP6g3L++JV10flnju/1ywjZn+r9l/itR0E5bNf86h9d27SYHy+9osXtHfMRPmS7rxTP7C6LPbWkk+NScohXb53l7aWmOs+GKVu+f3DylFb4v2nvGf/3re/eW17hzHGGDMaPgnPGGPWIub6dF+Exw/vuK230+779PZ+xwcbMcIS4E2fs3XvyH+Kr1LuBkLs2L98Q++Bn9/XLCPGS3vrv3+9ubb9K3dv8mbvK0uLBaKJPbAsMQau33/fvau/q24RhFK8j/qut+GTezdce0VzvVT/2ShHS6XliYaF0gelug0r59V7H9T7w/15u1qfUlv4UYNnBt561Id7O7zy9c3n2cSn+xpjzOLC/6AbY8xaxFyLVLxhxxzQX96LCEGMIHYOOeGsGeKmK3jkEDy5qJL4hVyg4ZVbftmFjyoXgfSxDxzc5Pen7zyut+Pr927iAYEmolCKoupNB767t9sfv62Jh0nKoW8OOu6TvS2ev0PzHe/i8X+9RyPW8jRz3Qej1A3PKyI2L4fn4MRD92767e//+bLe05+9VSNoj37LrjN+xBDsV/7IUQfOuH82sUg1xpjFhZf7GmOMqfKEJ67XHJQECA7EEx7IcQQqggoxRX6514/vCKMcBBXiDKGVC2OEz14H/X3z+ZIzTm7CHIRo9OSRBsEGV154ehPCpOW8+R3HrhaB8OtPfWbvZa97c/P5pq9f3YQwH33QtW6Ug0AtlUN6hCj1vvO2bzdxN664shGoPBN5W57/4lf0dnvz25vPV1ywpp+NMcaYLlikGmOMKcK+xPf86SsaISLxxLJUhNY46CAmHbyU87LX/HH7aQ03Lr+yCVkGWxLGiCdEFXUs1Wu7nV7dflpDKc2k5Wz+2y9oP61hi+e9sAkfvP9nTQjz0Qdd66Zyttp+x2I5LPM99pxrVov+r191SRO+dLc9mjDneTvs2ITLv3h+ExpjjDFdmS2R+tLWntJ867N5MuIIFyuxvbAU2jwt6Dv66tFuhPlnIddtIeF+WkRw2BDvR0X8HHHKhY1nDaGKN5XlsoghlntyCA9LUfk8jJuu+0oT/o/1NmjCnKdt/lvtpzX8+O47mvDG5V9qlqKWTPzXg/e3n/pQd7yGJdg7CUozSTlQKydnrvsAutbtwQd+3oTP/K3nN+EwEMXw+TNPKdbpnJPf11znmTHGGGNGYbZE6pdb27L51ueNyYgjXGwgQtkktm/zbQ2Luc3ThmeFvjq2+bawWMh1W0i4nxYJLPu86JMnNp+1lxHPGkIV4YfoYB/kF876cPOZ5aslz1sNefG6cNvN32xCBBFLUUtWE0ESol2YpJxxmKs+mE0Yd4WlOmHGGGPMOMzlct/vJ+MoRcLFBiJ05/7HGSzmNhtjFikrrrioCdlriEAVCNHD/vEzzWeEiYTsG/Y7vAm78u1vfa39NBx5Adlb+vGr7xposa7AKbNdmaSccZirPphNtFcZT3upLtGMMcaYUZhLkXpWsl3acKmwFNtsjFnEcFAPp+UKPKtdXzGy5basBu/1Hgr7ICP3/vAH7ac1bPSbT2/C77XexFHA81hbhqxXvvzaRv0TcCcpZxTmug9G4Ynrrt+EtXI44Zfl3SwFh9/YZLMmvOOWm5vQGGOMmRbTEKld96EN259J+lH2s6ncQXlGVD5G2hp5HZSuVi+u9X9O7od8V32UNtZPcbEOfM/jIqV8IsPSg+4Z1L+TljPqGA5jWHk5Kn9QGuK5HtuodLV2D0J9hpWYZp+onC55qZ3D7lf9REw3DZRX1zEc1p9mDthk8+c0Ics1SyLvqZtu0YhTYJmpRMswdJAOr1kp5fuVi89uP61h9eE7l13YLEPO0b5YXutSus4JtDmILeqNJ1BeyknL6cp89EFXttr+ZU3I3tdS3b566flNvz3lfz6t+b7t7+3ahLVThelnXoPDnmVjjDFmFCYRqUw6+Z/pR8nYh7YyGfsya5PR2v5M/ve6NxnplQ/fD01WIi8X+24yyi5NxonjGvfoftKSR6muXGdPXZ6Oen0n2W7JIlw7oP+xCfmuNpbarDj279FG2sp3rFavUj4RpY97gEVeRq0dMG45o47hMKhb3i/vT1YaL+LURpWvNKVnQvsmaSPl0BdKN+g5KsF9rNkj7UuICEyzT0YZQ8QdbYh/H4PK5lnnntLf1bj1hVHGEDQW8e90kvLNBPD6EC3l/NDBe84QLAgPvWdUQpVlv7zjsyRsInhhWUJM2tM/NPN+hG5pD6PSwMnv3m+GCCM99SO/9TZ8cvGAoNOPP6yps+DAJ973CXGZ8qTldGU++qArpFXdTj3qwBl1u/aLFzTCmjGXmH3hTq9pvuOxzsc/9nPXg5iMMcYYMcmLr1ck4+QHJpX66Zdz6Jloan/m7ybrH2XYn2wyIT4s2XFEJJjIs26M/9lOScbJD8yMJPrivcAElwl4LJc0+yV7VjLy2SLZj5MBE3Ymu4CYODcZsyrqyf3EsRxX98OqZMRzHVQvlQGEt/Q/Nu16eTLazP7Ty5P9WzLaXWqz4rg3pontpswD+x8bSvlEqDPE/gb6ijLoF5YccxQjJ4nofQEcCRmXIo9TzqhjWENjRT6cwML4fiQZ40VexNFXjFdEbYzPQ0xTeybU/6VyiHt2MhHTqHyeRV4WyP35eE2rTwDhSLo4hnreII5FfN7pi/56xpn352Wr/9Qf1DcvI39Oaow7hnsmO7P/cXW96S/iS/27pFm2bNmqg05i2GYXREYUoxxCxB5PBAnwzsw3vOWwRiCxP5V7Pnj2NUMPUELIHP2WXZt88nz5TnkIpUNO0COxRojpoB4JNgk60h35sUtnCDQ8eMCJxKQjRMQpDfXP3+05STmlfZeI42MOeF2xPXPZB6PWLY4pdbv/vntXl8tS77i8u/ScxPvpd96rO9uc+LZdeitXrpxkTmOMMWYBMa4nlUk4QhExxykN72qNzzVPSYl3tiH/25KeyTOTUSbekJ/GcXSyvFzSICiY3DI7OjgZUI/P9j82k9ztknGv6kke5EWeORLBiJtYhv6njZ5GriEygZDvUSjWQAAw+WfCTprYbomZSUBwUgaCgf4lf8ph4q/3FTAzGWeJa2TUMRyGhAxjRF7kSd60g/ZQf4H3jTjGKj4PhIydxFLJw0w6ngvGNU/DjxAIrhr6saQmoKbVJ7RVAjWOIc/MW5PB/2lD0GeukZZ7dT/iFBCfJbZPtixZLENp9mnDrowyhjx/CHHguVS9qYf+DumDktfYzCJ47xA9iLl1N3hSI4YQUbzfk4NyEHg68Ze4/Y48eahABe5592mXNPmCRBaHApFHCZXDPYge0mB4e4lDHNc8iKSjrHtS3UlDeoRWLlBhknJGYa77YBRiORp3BKfGPd9/XHpOuF/9PBcC1RhjzOJj3F8d5UV9VbKLiQiwBJLlhRC9PCUvnTxzGyWL3kzAc4NH5Z+S6RrL/5gFRU+moNy/TXZBMtIy2UWE5V4xweSYaxDLV51KbZOHjP91ozeo5oEsxSsOkYxwzlEbh/VdpOThxKNNP9W8YPLQHZMMEQHjlDPqGNaIXsDS+Go8+TFCIoc0eyW7KlmpjcThNY7tieXU6lxLw7jzpn0EKs9/zcM3rT5RXWpjSD30wwgwfojQ+GyK+HcZ/+7lSY3PgailqTHOGOpvqtaXpTRLmrnypK7tDPIimsWHPanGGLO4GMeTiheJCTrkIg5Y4yPxNwwmnsCGISar0avHhJTJtybyTIARb+SdT36Bckmjyfzz2pDlhiXIA6EIJU/bmk1Ma7ixDafBpW2Ys7wNJ4ExQiRASdxA/x0Tvd62bTguo4xhFxCCpfFVv2ipMiCUETa1NiL4azD2pXppiWyNk5Lx/JO+JKpgWn2ittaeCcSoBCrwuSRQof+W/jpXt2Gkv15vdEYZw93bUM9jTimNMcYYY4xZxIwjUiXoWLpXAy9eFzgSUssr8aYgQEnLASt4cUp0zVvia9A7SiUU8kNvYBRhNQ7sU5wtNEaDfizQ+w/wok3COGM4iJK4gVo8IMr5EQNPIuXiZsKbOWjZ9DjjS19JLCFUKbPEXPVJDcpADNMfCHjKHvQsQPl9GOMxyhhqlcPnkjFmuQ2rtzHGGGOMWWRMcrrvNCaPeGrYB8hyRm1cYWJ/RDKWGZY354zG7W24FOkq6Cdh2mM46MePEggxDjBimSlLlSkXMUldZkPg4EFlaSzE/aCRuXiuSyBOEeiUwRJZ+kOiWvWYC0YZQ/oF6FfqOMiMMcYYY8wSYByRqmWDWvI7KXi08PawTJE9fOwFZX8a4AnDI9SV6Nn6aRuWvKQ5g7ytayMaoy5e0mkIuWmO4SjLj8kXIQYIR/bKInrYl0Rdpi3S6SvyPSEZQoy/AZbzlphmn9RAlOJFFuclk0BHINMf9AXeyvclmytGGUMtuf+bZPTVIDPGGGOMMUuAcUQqXiJ5SuJeuwgnhXYlLn9kYs8+V/b6yVv1jDa8sw1rwovJOt407UPU3kJeZVFD9bypDRcLcS9hbYy2akOJhEnoOoZdKB1yBTrdNdb3kDakLA79YY/qqEtjRwHRS/sw7UdlaW8UimIafaIfEGrLij+ajPePUhb9g0CXkEYg63CruWaUMVQbd23DErX2G1OFA5N8aJIxxhizdjLuSXg6GbZ0IqdO64RBJ9QysWZZIpPU0qSW/Xssj4ynrOpUYV6xcSoRAeWvOil/4NUaUbiB6pmXzz44KPUNk2Wd8ho9O3nbRCm+dq/Qaaux71TXvFyo9TcihaWepVNREVUc6oOoiSfHjlrOOGNYQ30LsR1C/RLz0lgNO2U6pqmNoSiNTy2N6hT7eJp9ontLY6g6qRzVGwFYOjVazwPEZ7v0vEUG/T3kjDOGtIulyfzwxRJpBH2k9ne6pOGE3/ajMabFp/saY4zBO4fHkokSE2l5kphQKh5j0iqYRBNHKBCdxDGBZnIvmLgqjxiPJ4Y4yqAswefS/Yhp3S8vDnWN9yteKL4E7eEak+2I2iaxJ0ptLsVFyJvrse/ob+IwtVvtqPU3/aBr9IM8qsSr3wkj45Qz6hjWUN9icbyoUxxHPWtAmcRTB5XBdcqO9Y19XRtDURqfWhrKVBmz0Se1vzPKUrzGKdaFON1LvPpJFik9b5FSmhrqJ6zrGEJ8HlUP7qEdyi//OzXGGGOMMeZRxIlyNOJYFsnnOPEtTf6ZQJfykDGpz4kT/dzy+5no5hP0aKX8da2EJuG5WGECrXSY2lhqcykuUhMNiBTlH43Jfy0N9ar1L4IgFwswajnjjGEJ9S31kmiJRhm5sBtUNnVVX1N3URtDURqfQWnUX3H/67T6BAblFdsFEoK5kR7Bp79L/WABtWdHKI8ujDOGwHNYul9GHxtjjDHGmCXC49pwHDhs6NxkDyR7MBnL8Y5PxjLgDdq4zyW7Oxk8Pdn6ya5MdgMRCa6xr459hORzRzLyOSfZPsm0dDBC2tOTxXJr9z+U7NPJLkv238mYJHP/aclYMlzK/8XJuOdTzbeZ8J7WzZJdl+xyIlo4XZZJNgfkkPbWZFcnK7W5FBfh9TF53wHlxXZQBybvLPGspaFe6t91klG3f03GwT8HJaN/ckYtZ5wxLKG+ZYno25LFOuu5ol8jlJ0/g7TvvcmOTPaDZM9JxhIwngOojaEojc+gNCwjl5DE6PNp9QnEvOIYHpxMBzEJxuXmZA8nU5n03eHJvpjsCckeSUY89YTasyMG/T3kjDOGwHPI3yR1vyeZ/k7VXxwIZYwxxhhjjDHGGGOMMcYYY4wxxhhjjDHGGGOMMcYYY4wxxhhjjDHGGGOMMcYYY4wxxhhjjDHGGGOMMcYYY4wxxhhjjDHGGGOMMcYYY4wxxhhjjDHGGGOMMcYYY4wxxhhjjBmLx7WhGZ2nJHuo/3FWIP9tkz0j2feJWAvYOtkWyR5IlvdN3l9q35OS3U3EBLw02Vz1U96OQW02xhhjjDHGmFkHQfSdNpxNyH9Va2sLn09GfWPfIOren4xrEbUvjx+Huein2riX2myMMcYYY4wZk8e2oenO3yV7Vv+j6cCWyY7of5zBz5N9Idl1zbeFT23cqT/toD3GGGOMMcaYCbFINfPF9cl2Sfau5tvaC/WnHbTHGGOMMcYYMyHTEqnsy2O5I2GJzZNxvbYkcth1lozqOp+7EPMspVGetTqrTeQDul95bZWsljdwLaYfhurb9f4c1S+mVx1KdVT7avUfdF1lYYMgD/oJlEb9nX8XeZzqMW6/CPIYJx/VU/2Qj7vqp++gOKGxzdsKtX6oobxi/oMY9X5jjDHGGGPWag5Ndm8y7QnE2Le3W7IIE3HdR5oI10hTusbEXXv+op2cLIqCSNc0TNqJr+2JVB6qk+7PLU7+yZ9y8nvIqyZCSvVlD2csrwu6n/rS//m4kCdwn/o7vxZRnWL7RK1ueZq8XRhxoDz0XSiOflnRfo9pSyJT13PGGY+c2NZoeRv1HRRH+We1n2X0PWVzjX4vXSvBmObjxhjnfzOC+uT3Y4P+dowxxhhjjFmr0eSfiTKfmSzHCfmeySJ81/1RaJCOeARJhMm6hBbXuI9JvSbexOWT7VoaxSEeRE0kCQkNiQDqzGeVrzarLdRFoop7KJfriqMOuQAhbV5f8iVO5WNdUHtUXsxP+UgUla7tnyyi8qP4EioLi+RpGHOVQZ9Qpp6LWv8TR/3oA0z9qH4nLh934rHIOONRYti4l/pJcWqH0igPQv5WSteIy9HfDkY67icd9xLH5wjt0v3Kv/Z3YIwxxhhjzKIArw6TXSa9+URf4oNrmsgLTd6ZaEOcTOf5SEzkE3DEh8QwE+9IFBIR0uiavLw1kSRUVyb4EcVHUQJRAOYiijx0LaJ2lESGBAXWBbWnlJ/KL11DnBKf90OtnRDLipTS6N48/1q88s2frSg68zYoTWSc8RhErT9K8YortUHjWrqmZzTmFX/IyH/44Vr+XAP9Q1z+w0MsP/97M8YYY4wxZq1G4iqfNIvaJDlOuJmIS3TkQpAJNPFMwEuQD9fJSwxLI6+eBAAh9+ciSUhodBWpalcuzIXEhMQBgoHvWC6iQOIR64LaU8ovXsvrp77EIrV2QswvUkqje/N+rsUr39KzVRp3UJrIqOMxjFp/lOIVl/+IArqWC23Q30185vQclO4HeVn1ww+ojChcBXlTL4tUY4wxxhizIBn34KQ92vBf2zDnqjbcvQ3FLcn+tv+x99lkL0z2tWTHERHYuQ3PbsMc8vlusiclkzhQmkvbMIdJ/IHJvtJ8my7UgbrQFupWQvVSPXdoQ15f8uP+xxnU+nYY9EspP5HXr1bf+abU/tK4lxhnPGaDb7VhidvaMFKK09/QRW2Ys7wN9TcJ57fhp5LlgpS/NU4k9mnExhhjjDFmQTKOSI2eqR8lw2OT25nJapyaDGGGiIC/aMPIpm3I+zVL+WO1d5WWJvqzzSZtiOgu1RU7IFnkuW340zbMGVc81jzJaxODhHaX9o0zHrPB7W04Cc9uw88lK7WDvsr5dDIEOn9j/A2tTIZnGW9sybtqjDHGGGPMgmEckfrUNgTE5iC7Ltkw1m/DiIQwE/BSvtF+nmy+eUYb/iRZqY7Rvp8sUhIZS51JhfYk47HQ0I8xiM5S/aMJBP52yV6VjNUI9AOCFWGO2C3t0zXGGGOMMWatJe6lHAftsdOeQMJ8wqxDb/L9oIPg3kFpKCMue2RJKPezf6+E9vXl+Sk+LjfVQVK1vEqoHwal4TrWhUHt0bVaXqVrpXaKWn6lNLV61eKJy/ecRkpl8B0T44zHMErlQim+di/oWuk5LT3D2rddymsUSM/flfbq1va4GmOMMcYYM6+M40nFS4NnBmpLB3NBKPCQfqD/sbdPMrw/eIoOJiIg79ab2rAE+UdxqzQvb8Mc9oCy7DEeMDMt7mhD9jfmglvQ9rhU+po21HLOnKV8sA1ev9hXEe0hvakNS4wzHgsVedp3bcMSJQGbPz/sxWYv6p8039aOthtjjDHGmCXIuAcnSei9vQ1zTkqGIMy9NXxHgByTjEkzBxkB++biRFuH5rCnsDYBJ3/2xGqyrTQIk5LAU10vaEMtE94+WS5kSD/KgTocQiMxsW8bRsifg3q4R6fWKg0ivXSSrQ6Ymi+0V/YlbRj5yzacTd7YhhGdFs2PG4MOhxpnPBYqel5ZqlsS3PTJl5PFJdJ4S/n7sBA1xhhjjDFLBia/WjaIYNVkmBAhSjzX4yRZr8ogPk62tcQx34eoJb/cH4UE3luVzT0RpSEviVvKUp3ypcV8J57riid/xWO15b4STEJLTJVG+SF4tWQzfy+n0tAe5Uc6tUPWBdrLvdQvR9dqeZWuxfFSXzKeg+pWWuaqsvO+r9VX+WKxH7U8Gov5g+Ij44zHIGrjXmpzKU7oWv5cAXGla7G+ypP2xD6hvUJjxP0xnrR6tvN2GGOMMcYYs9bDZF9iMbdcWDKh1r2554prmjjnk3OJy5Ix2ZfwiNTSUH7uYY1CJhqTe0308zrlIi0KEQm7ktHGvHyIQiOahAnWBerBvfRLjq7V8qpdi3WIFtsZKYmz+IMGpvrV6qv7auOYPz+gaznjjEeN2riX2lyKE7o2ikjlOa+NBUbdIsPup2+NMcYYY4xZkDyuDcfh7mQfTcarUh5Ixj5Alk8en4yliUySxd7JNkjGktxjiQg8lAzBsFGyzZJd0sYBJ5FeluyuZA8mI3/yYA8rS4Z1X0Rp/jsZ4ijW6dZkkW8nOz0Z9Vf+3Mvy4/WScfLwlcluSCYuT0a5jyTjfpZVkg9wH/ndmUzXOeEYEbFfMvosh+uxvrr/oGQvTkYevO9yGCyjpv9ITx0julbLq1bOacluTvZwMsZXfX9xslKaLZPRj4yB2sr+ZYQZdSAPlhHzipRafd/bhizDjmWfk4x9zCxtzanVf5zxqFEb91KbS3FC1/LnCp6erPTMUa7G4p5keq7VJ+cli9Tu1/idkswYY4wxxhhjTAfk7TPGGGOMMcYsQcY9OMkYY4wxxhhjjJk6FqnGGGOMMcYYYxYMFqnGGGOMMcYYYxYMFqlmocE7UDFjjDHGGGOMMcYYY4wxxhhjjDHGGGOMMcYYY4wxxhhjjDHGGGOMMcYYY4wxxhhjjDHGGGOMMcYYY4wxxhhjjDHGGGOMMcYYY4wxxhhjjDHGGGOMMcYYY4wxxhhjjDHGGGOMMcYYY4wxxhhjjDHGGGOMMcYYY4wxxhhjjDHGGGOMMcYYY4wxxswyvd7/Bzk6TyLaHfh4AAAAAElFTkSuQmCC;" vertex="1" parent="1">
          <mxGeometry x="-260" y="500" width="558.14" height="330" as="geometry" />
        </mxCell>
        <mxCell id="3z0_Sp1MEmYVmoYPcg8N-37" value="UDS_BL" style="rounded=0;whiteSpace=wrap;html=1;strokeColor=#CCCCCC;fillColor=#dae8fc;" vertex="1" parent="1">
          <mxGeometry x="-105" y="345" width="190" height="50" as="geometry" />
        </mxCell>
        <mxCell id="3z0_Sp1MEmYVmoYPcg8N-38" value="APPa" style="rounded=0;whiteSpace=wrap;html=1;strokeColor=#d6b656;fillColor=#fff2cc;" vertex="1" parent="1">
          <mxGeometry x="-105" y="230" width="190" height="110" as="geometry" />
        </mxCell>
      </root>
    </mxGraphModel>
  </diagram>
</mxfile>
